G04 EAGLE Gerber RS-274X export*
G75*
%MOMM*%
%FSLAX34Y34*%
%LPD*%
%INBottom Copper*%
%IPPOS*%
%AMOC8*
5,1,8,0,0,1.08239X$1,22.5*%
G01*
%ADD10R,1.518000X1.518000*%
%ADD11C,1.518000*%
%ADD12R,1.879600X1.879600*%
%ADD13C,1.879600*%
%ADD14C,5.080000*%
%ADD15R,1.530000X1.530000*%
%ADD16C,1.530000*%
%ADD17R,1.398000X1.398000*%
%ADD18C,1.398000*%
%ADD19R,2.775000X2.775000*%
%ADD20C,2.775000*%
%ADD21C,0.254000*%
%ADD22C,0.756400*%

G36*
X304820Y10164D02*
X304820Y10164D01*
X304839Y10162D01*
X304941Y10184D01*
X305043Y10200D01*
X305060Y10210D01*
X305080Y10214D01*
X305169Y10267D01*
X305260Y10316D01*
X305274Y10330D01*
X305291Y10340D01*
X305358Y10419D01*
X305430Y10494D01*
X305438Y10512D01*
X305451Y10527D01*
X305490Y10623D01*
X305533Y10717D01*
X305535Y10737D01*
X305543Y10755D01*
X305561Y10922D01*
X305561Y104509D01*
X305547Y104599D01*
X305539Y104690D01*
X305527Y104719D01*
X305522Y104751D01*
X305479Y104832D01*
X305443Y104916D01*
X305417Y104948D01*
X305406Y104969D01*
X305383Y104991D01*
X305338Y105047D01*
X288915Y121470D01*
X288841Y121523D01*
X288771Y121583D01*
X288741Y121595D01*
X288715Y121614D01*
X288628Y121641D01*
X288543Y121675D01*
X288502Y121679D01*
X288480Y121686D01*
X288448Y121685D01*
X288377Y121693D01*
X285139Y121693D01*
X282031Y124802D01*
X282031Y129198D01*
X283676Y130843D01*
X283718Y130901D01*
X283767Y130953D01*
X283789Y131001D01*
X283819Y131043D01*
X283841Y131111D01*
X283871Y131177D01*
X283876Y131228D01*
X283892Y131278D01*
X283890Y131350D01*
X283898Y131421D01*
X283887Y131472D01*
X283885Y131524D01*
X283861Y131591D01*
X283846Y131661D01*
X283819Y131706D01*
X283801Y131755D01*
X283756Y131811D01*
X283719Y131872D01*
X283680Y131906D01*
X283647Y131947D01*
X283587Y131986D01*
X283532Y132032D01*
X283484Y132052D01*
X283440Y132080D01*
X283371Y132097D01*
X283304Y132124D01*
X283233Y132132D01*
X283202Y132140D01*
X283179Y132138D01*
X283138Y132143D01*
X280873Y132143D01*
X280783Y132128D01*
X280692Y132121D01*
X280662Y132108D01*
X280630Y132103D01*
X280550Y132060D01*
X280466Y132025D01*
X280434Y131999D01*
X280413Y131988D01*
X280391Y131965D01*
X280335Y131920D01*
X173838Y25423D01*
X173785Y25349D01*
X173725Y25279D01*
X173713Y25249D01*
X173694Y25223D01*
X173667Y25136D01*
X173633Y25051D01*
X173629Y25010D01*
X173622Y24988D01*
X173623Y24956D01*
X173615Y24885D01*
X173615Y23706D01*
X172318Y20577D01*
X169923Y18182D01*
X166794Y16885D01*
X163406Y16885D01*
X160277Y18182D01*
X157882Y20577D01*
X156585Y23706D01*
X156585Y27094D01*
X157882Y30223D01*
X160277Y32618D01*
X163406Y33915D01*
X166794Y33915D01*
X169923Y32618D01*
X170988Y31554D01*
X171004Y31542D01*
X171016Y31527D01*
X171103Y31471D01*
X171187Y31410D01*
X171206Y31405D01*
X171223Y31394D01*
X171324Y31369D01*
X171422Y31338D01*
X171442Y31339D01*
X171462Y31334D01*
X171565Y31342D01*
X171668Y31344D01*
X171687Y31351D01*
X171707Y31353D01*
X171802Y31393D01*
X171899Y31429D01*
X171915Y31441D01*
X171933Y31449D01*
X172064Y31554D01*
X276382Y135872D01*
X278242Y137732D01*
X304800Y137732D01*
X304820Y137735D01*
X304839Y137733D01*
X304941Y137755D01*
X305043Y137772D01*
X305060Y137781D01*
X305080Y137786D01*
X305169Y137839D01*
X305260Y137887D01*
X305274Y137901D01*
X305291Y137912D01*
X305358Y137990D01*
X305430Y138065D01*
X305438Y138083D01*
X305451Y138099D01*
X305490Y138195D01*
X305533Y138288D01*
X305535Y138308D01*
X305543Y138327D01*
X305561Y138493D01*
X305561Y171184D01*
X305550Y171254D01*
X305548Y171326D01*
X305530Y171375D01*
X305522Y171426D01*
X305488Y171490D01*
X305463Y171557D01*
X305431Y171598D01*
X305406Y171644D01*
X305355Y171693D01*
X305310Y171749D01*
X305266Y171777D01*
X305228Y171813D01*
X305163Y171843D01*
X305103Y171882D01*
X305052Y171895D01*
X305005Y171917D01*
X304934Y171925D01*
X304864Y171942D01*
X304812Y171938D01*
X304761Y171944D01*
X304690Y171929D01*
X304619Y171923D01*
X304571Y171903D01*
X304520Y171892D01*
X304459Y171855D01*
X304393Y171827D01*
X304337Y171782D01*
X304309Y171765D01*
X304294Y171748D01*
X304262Y171722D01*
X296433Y163893D01*
X236423Y163893D01*
X236333Y163878D01*
X236242Y163871D01*
X236212Y163858D01*
X236180Y163853D01*
X236100Y163810D01*
X236016Y163775D01*
X235984Y163749D01*
X235963Y163738D01*
X235941Y163715D01*
X235885Y163670D01*
X97638Y25423D01*
X97585Y25349D01*
X97525Y25279D01*
X97513Y25249D01*
X97494Y25223D01*
X97467Y25136D01*
X97433Y25051D01*
X97429Y25010D01*
X97422Y24988D01*
X97423Y24956D01*
X97415Y24885D01*
X97415Y23706D01*
X96118Y20577D01*
X93723Y18182D01*
X90594Y16885D01*
X87206Y16885D01*
X84077Y18182D01*
X81682Y20577D01*
X80385Y23706D01*
X80385Y27094D01*
X81682Y30223D01*
X84077Y32618D01*
X87206Y33915D01*
X90594Y33915D01*
X93723Y32618D01*
X94788Y31554D01*
X94804Y31542D01*
X94816Y31527D01*
X94903Y31471D01*
X94987Y31410D01*
X95006Y31405D01*
X95023Y31394D01*
X95124Y31369D01*
X95222Y31338D01*
X95242Y31339D01*
X95262Y31334D01*
X95365Y31342D01*
X95468Y31344D01*
X95487Y31351D01*
X95507Y31353D01*
X95602Y31393D01*
X95699Y31429D01*
X95715Y31441D01*
X95733Y31449D01*
X95864Y31554D01*
X231932Y167622D01*
X233792Y169482D01*
X293802Y169482D01*
X293892Y169497D01*
X293983Y169504D01*
X294013Y169517D01*
X294045Y169522D01*
X294125Y169565D01*
X294209Y169600D01*
X294241Y169626D01*
X294262Y169637D01*
X294284Y169660D01*
X294340Y169705D01*
X305338Y180703D01*
X305391Y180777D01*
X305451Y180847D01*
X305463Y180877D01*
X305482Y180903D01*
X305509Y180990D01*
X305543Y181075D01*
X305547Y181116D01*
X305554Y181138D01*
X305553Y181170D01*
X305561Y181241D01*
X305561Y189739D01*
X314059Y189739D01*
X314149Y189754D01*
X314240Y189761D01*
X314269Y189773D01*
X314301Y189779D01*
X314382Y189821D01*
X314466Y189857D01*
X314498Y189883D01*
X314519Y189894D01*
X314541Y189917D01*
X314597Y189962D01*
X420845Y296210D01*
X420898Y296284D01*
X420957Y296353D01*
X420970Y296383D01*
X420988Y296409D01*
X421015Y296496D01*
X421049Y296581D01*
X421054Y296622D01*
X421061Y296644D01*
X421060Y296677D01*
X421068Y296748D01*
X421068Y351995D01*
X477995Y408922D01*
X478048Y408996D01*
X478107Y409066D01*
X478120Y409096D01*
X478138Y409122D01*
X478165Y409209D01*
X478199Y409294D01*
X478204Y409335D01*
X478211Y409357D01*
X478210Y409389D01*
X478218Y409460D01*
X478218Y541075D01*
X478203Y541165D01*
X478196Y541256D01*
X478183Y541285D01*
X478178Y541317D01*
X478135Y541398D01*
X478100Y541482D01*
X478074Y541514D01*
X478063Y541535D01*
X478040Y541557D01*
X477995Y541613D01*
X475706Y543902D01*
X475706Y548298D01*
X478814Y551407D01*
X483211Y551407D01*
X486319Y548298D01*
X486319Y543902D01*
X484030Y541613D01*
X483977Y541539D01*
X483918Y541469D01*
X483905Y541439D01*
X483887Y541413D01*
X483860Y541326D01*
X483826Y541241D01*
X483821Y541200D01*
X483814Y541178D01*
X483815Y541146D01*
X483807Y541075D01*
X483807Y381263D01*
X483822Y381173D01*
X483829Y381082D01*
X483842Y381052D01*
X483847Y381020D01*
X483890Y380940D01*
X483925Y380856D01*
X483951Y380824D01*
X483962Y380803D01*
X483985Y380781D01*
X484030Y380725D01*
X486319Y378436D01*
X486319Y374039D01*
X483211Y370931D01*
X478814Y370931D01*
X475706Y374039D01*
X475706Y378436D01*
X477995Y380725D01*
X478048Y380799D01*
X478107Y380868D01*
X478120Y380898D01*
X478138Y380924D01*
X478165Y381011D01*
X478199Y381096D01*
X478204Y381137D01*
X478211Y381159D01*
X478210Y381192D01*
X478218Y381263D01*
X478218Y399403D01*
X478206Y399473D01*
X478204Y399545D01*
X478186Y399594D01*
X478178Y399645D01*
X478145Y399709D01*
X478120Y399776D01*
X478087Y399817D01*
X478063Y399863D01*
X478011Y399912D01*
X477966Y399968D01*
X477922Y399996D01*
X477885Y400032D01*
X477820Y400062D01*
X477759Y400101D01*
X477709Y400114D01*
X477662Y400136D01*
X477590Y400144D01*
X477521Y400161D01*
X477469Y400157D01*
X477417Y400163D01*
X477347Y400148D01*
X477276Y400142D01*
X477228Y400122D01*
X477177Y400111D01*
X477115Y400074D01*
X477049Y400046D01*
X476993Y400001D01*
X476966Y399984D01*
X476950Y399967D01*
X476918Y399941D01*
X432834Y355856D01*
X432792Y355798D01*
X432742Y355746D01*
X432720Y355699D01*
X432690Y355657D01*
X432669Y355588D01*
X432639Y355523D01*
X432633Y355471D01*
X432618Y355421D01*
X432620Y355350D01*
X432612Y355279D01*
X432623Y355228D01*
X432624Y355176D01*
X432649Y355108D01*
X432664Y355038D01*
X432691Y354994D01*
X432709Y354945D01*
X432753Y354889D01*
X432790Y354827D01*
X432830Y354793D01*
X432862Y354753D01*
X432923Y354714D01*
X432977Y354667D01*
X433025Y354648D01*
X433069Y354620D01*
X433139Y354602D01*
X433205Y354575D01*
X433277Y354567D01*
X433308Y354559D01*
X433331Y354561D01*
X433372Y354557D01*
X433998Y354557D01*
X437107Y351448D01*
X437107Y347052D01*
X434818Y344763D01*
X434765Y344689D01*
X434705Y344619D01*
X434693Y344589D01*
X434674Y344563D01*
X434647Y344476D01*
X434613Y344391D01*
X434609Y344350D01*
X434602Y344328D01*
X434603Y344296D01*
X434595Y344225D01*
X434595Y190500D01*
X434598Y190480D01*
X434596Y190461D01*
X434618Y190359D01*
X434634Y190257D01*
X434644Y190240D01*
X434648Y190220D01*
X434701Y190131D01*
X434750Y190040D01*
X434764Y190026D01*
X434774Y190009D01*
X434853Y189942D01*
X434928Y189871D01*
X434946Y189862D01*
X434961Y189849D01*
X435057Y189810D01*
X435151Y189767D01*
X435171Y189765D01*
X435189Y189757D01*
X435356Y189739D01*
X456439Y189739D01*
X456439Y86106D01*
X456442Y86086D01*
X456440Y86067D01*
X456462Y85965D01*
X456479Y85863D01*
X456488Y85846D01*
X456492Y85826D01*
X456545Y85737D01*
X456594Y85646D01*
X456608Y85632D01*
X456618Y85615D01*
X456697Y85548D01*
X456772Y85476D01*
X456790Y85468D01*
X456805Y85455D01*
X456901Y85416D01*
X456995Y85373D01*
X457015Y85371D01*
X457033Y85363D01*
X457200Y85345D01*
X599812Y85345D01*
X599902Y85359D01*
X599993Y85367D01*
X600023Y85379D01*
X600055Y85384D01*
X600135Y85427D01*
X600219Y85463D01*
X600251Y85489D01*
X600272Y85500D01*
X600294Y85523D01*
X600350Y85568D01*
X602639Y87857D01*
X607036Y87857D01*
X610144Y84748D01*
X610144Y80352D01*
X607036Y77243D01*
X602639Y77243D01*
X600350Y79532D01*
X600276Y79585D01*
X600207Y79645D01*
X600177Y79657D01*
X600151Y79676D01*
X600064Y79703D01*
X599979Y79737D01*
X599938Y79741D01*
X599916Y79748D01*
X599883Y79747D01*
X599812Y79755D01*
X457200Y79755D01*
X457180Y79752D01*
X457161Y79754D01*
X457059Y79732D01*
X456957Y79716D01*
X456940Y79706D01*
X456920Y79702D01*
X456831Y79649D01*
X456740Y79600D01*
X456726Y79586D01*
X456709Y79576D01*
X456642Y79497D01*
X456571Y79422D01*
X456562Y79404D01*
X456549Y79389D01*
X456510Y79293D01*
X456467Y79199D01*
X456465Y79179D01*
X456457Y79161D01*
X456439Y78994D01*
X456439Y10922D01*
X456442Y10902D01*
X456440Y10883D01*
X456462Y10781D01*
X456479Y10679D01*
X456488Y10662D01*
X456492Y10642D01*
X456545Y10553D01*
X456594Y10462D01*
X456608Y10448D01*
X456618Y10431D01*
X456697Y10364D01*
X456772Y10292D01*
X456790Y10284D01*
X456805Y10271D01*
X456901Y10232D01*
X456995Y10189D01*
X457015Y10187D01*
X457033Y10179D01*
X457200Y10161D01*
X750878Y10161D01*
X750898Y10164D01*
X750917Y10162D01*
X751019Y10184D01*
X751121Y10200D01*
X751138Y10210D01*
X751158Y10214D01*
X751247Y10267D01*
X751338Y10316D01*
X751352Y10330D01*
X751369Y10340D01*
X751436Y10419D01*
X751508Y10494D01*
X751516Y10512D01*
X751529Y10527D01*
X751568Y10623D01*
X751611Y10717D01*
X751613Y10737D01*
X751621Y10755D01*
X751639Y10922D01*
X751639Y215900D01*
X751636Y215920D01*
X751638Y215939D01*
X751616Y216041D01*
X751600Y216143D01*
X751590Y216160D01*
X751586Y216180D01*
X751533Y216269D01*
X751484Y216360D01*
X751470Y216374D01*
X751460Y216391D01*
X751381Y216458D01*
X751306Y216529D01*
X751288Y216538D01*
X751273Y216551D01*
X751177Y216590D01*
X751083Y216633D01*
X751063Y216635D01*
X751045Y216643D01*
X750878Y216661D01*
X673861Y216661D01*
X673861Y558039D01*
X750878Y558039D01*
X750898Y558042D01*
X750917Y558040D01*
X751019Y558062D01*
X751121Y558079D01*
X751138Y558088D01*
X751158Y558092D01*
X751247Y558145D01*
X751338Y558194D01*
X751352Y558208D01*
X751369Y558218D01*
X751436Y558297D01*
X751508Y558372D01*
X751516Y558390D01*
X751529Y558405D01*
X751568Y558501D01*
X751611Y558595D01*
X751613Y558615D01*
X751621Y558633D01*
X751639Y558800D01*
X751639Y747778D01*
X751636Y747798D01*
X751638Y747817D01*
X751616Y747919D01*
X751600Y748021D01*
X751590Y748038D01*
X751586Y748058D01*
X751533Y748147D01*
X751484Y748238D01*
X751470Y748252D01*
X751460Y748269D01*
X751381Y748336D01*
X751306Y748408D01*
X751288Y748416D01*
X751273Y748429D01*
X751177Y748468D01*
X751083Y748511D01*
X751063Y748513D01*
X751045Y748521D01*
X750878Y748539D01*
X10922Y748539D01*
X10902Y748536D01*
X10883Y748538D01*
X10781Y748516D01*
X10679Y748500D01*
X10662Y748490D01*
X10642Y748486D01*
X10553Y748433D01*
X10462Y748384D01*
X10448Y748370D01*
X10431Y748360D01*
X10364Y748281D01*
X10292Y748206D01*
X10284Y748188D01*
X10271Y748173D01*
X10232Y748077D01*
X10189Y747983D01*
X10187Y747963D01*
X10179Y747945D01*
X10161Y747778D01*
X10161Y368300D01*
X10164Y368280D01*
X10162Y368261D01*
X10184Y368159D01*
X10200Y368057D01*
X10210Y368040D01*
X10214Y368020D01*
X10267Y367931D01*
X10316Y367840D01*
X10330Y367826D01*
X10340Y367809D01*
X10419Y367742D01*
X10494Y367671D01*
X10512Y367662D01*
X10527Y367649D01*
X10623Y367610D01*
X10717Y367567D01*
X10737Y367565D01*
X10755Y367557D01*
X10922Y367539D01*
X37719Y367539D01*
X37739Y367542D01*
X37758Y367540D01*
X37860Y367562D01*
X37962Y367579D01*
X37979Y367588D01*
X37999Y367592D01*
X38088Y367645D01*
X38179Y367694D01*
X38193Y367708D01*
X38210Y367718D01*
X38277Y367797D01*
X38349Y367872D01*
X38357Y367890D01*
X38370Y367905D01*
X38409Y368001D01*
X38452Y368095D01*
X38454Y368115D01*
X38462Y368133D01*
X38480Y368300D01*
X38480Y448833D01*
X92262Y502615D01*
X92315Y502689D01*
X92375Y502758D01*
X92387Y502788D01*
X92406Y502814D01*
X92433Y502901D01*
X92467Y502986D01*
X92471Y503027D01*
X92478Y503049D01*
X92477Y503082D01*
X92485Y503153D01*
X92485Y516222D01*
X93378Y517115D01*
X109822Y517115D01*
X110715Y516222D01*
X110715Y499778D01*
X109822Y498885D01*
X96753Y498885D01*
X96663Y498871D01*
X96572Y498863D01*
X96542Y498851D01*
X96510Y498846D01*
X96430Y498803D01*
X96346Y498767D01*
X96314Y498741D01*
X96293Y498730D01*
X96291Y498729D01*
X96291Y498728D01*
X96270Y498707D01*
X96215Y498662D01*
X44293Y446740D01*
X44240Y446666D01*
X44180Y446597D01*
X44168Y446567D01*
X44149Y446541D01*
X44122Y446454D01*
X44088Y446369D01*
X44084Y446328D01*
X44077Y446306D01*
X44078Y446273D01*
X44070Y446202D01*
X44070Y368300D01*
X44073Y368280D01*
X44071Y368261D01*
X44093Y368159D01*
X44109Y368057D01*
X44119Y368040D01*
X44123Y368020D01*
X44176Y367931D01*
X44225Y367840D01*
X44239Y367826D01*
X44249Y367809D01*
X44328Y367742D01*
X44403Y367671D01*
X44421Y367662D01*
X44436Y367649D01*
X44532Y367610D01*
X44626Y367567D01*
X44646Y367565D01*
X44664Y367557D01*
X44831Y367539D01*
X59944Y367539D01*
X59964Y367542D01*
X59983Y367540D01*
X60085Y367562D01*
X60187Y367579D01*
X60204Y367588D01*
X60224Y367592D01*
X60313Y367645D01*
X60404Y367694D01*
X60418Y367708D01*
X60435Y367718D01*
X60502Y367797D01*
X60574Y367872D01*
X60582Y367890D01*
X60595Y367905D01*
X60634Y368001D01*
X60677Y368095D01*
X60679Y368115D01*
X60687Y368133D01*
X60705Y368300D01*
X60705Y420258D01*
X62342Y421895D01*
X83875Y421895D01*
X83965Y421909D01*
X84056Y421917D01*
X84085Y421929D01*
X84117Y421934D01*
X84198Y421977D01*
X84282Y422013D01*
X84314Y422039D01*
X84335Y422050D01*
X84357Y422073D01*
X84413Y422118D01*
X86702Y424407D01*
X91098Y424407D01*
X94207Y421298D01*
X94207Y416902D01*
X91098Y413793D01*
X86702Y413793D01*
X84413Y416082D01*
X84339Y416135D01*
X84269Y416195D01*
X84239Y416207D01*
X84213Y416226D01*
X84126Y416253D01*
X84041Y416287D01*
X84000Y416291D01*
X83978Y416298D01*
X83946Y416297D01*
X83875Y416305D01*
X67056Y416305D01*
X67036Y416302D01*
X67017Y416304D01*
X66915Y416282D01*
X66813Y416266D01*
X66796Y416256D01*
X66776Y416252D01*
X66687Y416199D01*
X66596Y416150D01*
X66582Y416136D01*
X66565Y416126D01*
X66498Y416047D01*
X66426Y415972D01*
X66418Y415954D01*
X66405Y415939D01*
X66366Y415843D01*
X66323Y415749D01*
X66321Y415729D01*
X66313Y415711D01*
X66295Y415544D01*
X66295Y316342D01*
X64658Y314705D01*
X63500Y314705D01*
X63480Y314702D01*
X63461Y314704D01*
X63359Y314682D01*
X63257Y314666D01*
X63240Y314656D01*
X63220Y314652D01*
X63131Y314599D01*
X63040Y314550D01*
X63026Y314536D01*
X63009Y314526D01*
X62942Y314447D01*
X62870Y314372D01*
X62862Y314354D01*
X62849Y314339D01*
X62810Y314243D01*
X62767Y314149D01*
X62765Y314129D01*
X62757Y314111D01*
X62739Y313944D01*
X62739Y300304D01*
X62750Y300233D01*
X62752Y300162D01*
X62770Y300113D01*
X62778Y300061D01*
X62812Y299998D01*
X62837Y299930D01*
X62869Y299890D01*
X62894Y299844D01*
X62945Y299794D01*
X62990Y299738D01*
X63034Y299710D01*
X63072Y299674D01*
X63137Y299644D01*
X63197Y299605D01*
X63248Y299593D01*
X63295Y299571D01*
X63366Y299563D01*
X63436Y299545D01*
X63488Y299549D01*
X63539Y299544D01*
X63610Y299559D01*
X63681Y299565D01*
X63729Y299585D01*
X63780Y299596D01*
X63841Y299633D01*
X63907Y299661D01*
X63963Y299706D01*
X63991Y299722D01*
X64006Y299740D01*
X64038Y299766D01*
X75166Y310894D01*
X75208Y310952D01*
X75258Y311004D01*
X75280Y311051D01*
X75310Y311093D01*
X75331Y311162D01*
X75361Y311227D01*
X75367Y311279D01*
X75382Y311329D01*
X75380Y311400D01*
X75388Y311471D01*
X75377Y311522D01*
X75376Y311574D01*
X75351Y311642D01*
X75336Y311712D01*
X75309Y311757D01*
X75291Y311805D01*
X75247Y311861D01*
X75210Y311923D01*
X75170Y311957D01*
X75138Y311997D01*
X75077Y312036D01*
X75023Y312083D01*
X74975Y312102D01*
X74931Y312130D01*
X74861Y312148D01*
X74795Y312175D01*
X74723Y312183D01*
X74692Y312191D01*
X74669Y312189D01*
X74628Y312193D01*
X74002Y312193D01*
X70893Y315302D01*
X70893Y319698D01*
X73182Y321987D01*
X73235Y322061D01*
X73295Y322131D01*
X73307Y322161D01*
X73326Y322187D01*
X73353Y322274D01*
X73387Y322359D01*
X73391Y322400D01*
X73398Y322422D01*
X73397Y322454D01*
X73405Y322525D01*
X73405Y401375D01*
X73391Y401465D01*
X73383Y401556D01*
X73371Y401585D01*
X73366Y401617D01*
X73323Y401698D01*
X73287Y401782D01*
X73261Y401814D01*
X73250Y401835D01*
X73227Y401857D01*
X73182Y401913D01*
X70893Y404202D01*
X70893Y408598D01*
X74002Y411707D01*
X78398Y411707D01*
X81507Y408598D01*
X81507Y404202D01*
X79218Y401913D01*
X79165Y401839D01*
X79105Y401769D01*
X79093Y401739D01*
X79074Y401713D01*
X79047Y401626D01*
X79013Y401541D01*
X79009Y401500D01*
X79002Y401478D01*
X79003Y401446D01*
X78995Y401375D01*
X78995Y322525D01*
X79009Y322435D01*
X79017Y322344D01*
X79029Y322315D01*
X79034Y322283D01*
X79077Y322202D01*
X79113Y322118D01*
X79139Y322086D01*
X79150Y322065D01*
X79173Y322043D01*
X79218Y321987D01*
X81507Y319698D01*
X81507Y319072D01*
X81518Y319001D01*
X81520Y318929D01*
X81538Y318880D01*
X81546Y318829D01*
X81580Y318766D01*
X81605Y318698D01*
X81637Y318658D01*
X81662Y318612D01*
X81714Y318562D01*
X81758Y318506D01*
X81802Y318478D01*
X81840Y318442D01*
X81905Y318412D01*
X81965Y318373D01*
X82016Y318361D01*
X82063Y318339D01*
X82134Y318331D01*
X82204Y318313D01*
X82256Y318317D01*
X82307Y318312D01*
X82378Y318327D01*
X82449Y318332D01*
X82497Y318353D01*
X82548Y318364D01*
X82609Y318401D01*
X82675Y318429D01*
X82731Y318474D01*
X82759Y318490D01*
X82774Y318508D01*
X82806Y318534D01*
X125842Y361570D01*
X215637Y361570D01*
X215727Y361584D01*
X215818Y361592D01*
X215848Y361604D01*
X215880Y361609D01*
X215960Y361652D01*
X216044Y361688D01*
X216076Y361714D01*
X216097Y361725D01*
X216119Y361748D01*
X216175Y361793D01*
X218464Y364082D01*
X222861Y364082D01*
X225150Y361793D01*
X225224Y361740D01*
X225293Y361680D01*
X225323Y361668D01*
X225349Y361649D01*
X225436Y361622D01*
X225521Y361588D01*
X225562Y361584D01*
X225584Y361577D01*
X225617Y361578D01*
X225688Y361570D01*
X252695Y361570D01*
X252714Y361573D01*
X252734Y361571D01*
X252835Y361593D01*
X252937Y361609D01*
X252955Y361619D01*
X252974Y361623D01*
X253063Y361676D01*
X253155Y361725D01*
X253168Y361739D01*
X253185Y361749D01*
X253253Y361828D01*
X253324Y361903D01*
X253332Y361921D01*
X253345Y361936D01*
X253384Y362032D01*
X253428Y362126D01*
X253430Y362146D01*
X253437Y362164D01*
X253456Y362331D01*
X253456Y364148D01*
X256564Y367257D01*
X260961Y367257D01*
X262606Y365612D01*
X262664Y365570D01*
X262716Y365520D01*
X262763Y365498D01*
X262805Y365468D01*
X262874Y365447D01*
X262939Y365417D01*
X262991Y365411D01*
X263041Y365396D01*
X263112Y365398D01*
X263183Y365390D01*
X263234Y365401D01*
X263286Y365402D01*
X263354Y365427D01*
X263424Y365442D01*
X263469Y365469D01*
X263517Y365487D01*
X263573Y365531D01*
X263635Y365568D01*
X263669Y365608D01*
X263709Y365640D01*
X263748Y365701D01*
X263795Y365755D01*
X263814Y365803D01*
X263842Y365847D01*
X263860Y365917D01*
X263887Y365983D01*
X263895Y366055D01*
X263903Y366086D01*
X263901Y366109D01*
X263905Y366150D01*
X263905Y388675D01*
X263891Y388765D01*
X263883Y388856D01*
X263871Y388885D01*
X263866Y388917D01*
X263823Y388998D01*
X263787Y389082D01*
X263761Y389114D01*
X263750Y389135D01*
X263727Y389157D01*
X263682Y389213D01*
X261393Y391502D01*
X261393Y395898D01*
X263682Y398187D01*
X263735Y398261D01*
X263795Y398331D01*
X263807Y398361D01*
X263826Y398387D01*
X263853Y398474D01*
X263887Y398559D01*
X263891Y398600D01*
X263898Y398622D01*
X263897Y398654D01*
X263905Y398725D01*
X263905Y437125D01*
X263894Y437196D01*
X263892Y437268D01*
X263874Y437317D01*
X263866Y437368D01*
X263832Y437431D01*
X263807Y437499D01*
X263775Y437539D01*
X263750Y437585D01*
X263698Y437635D01*
X263654Y437691D01*
X263610Y437719D01*
X263572Y437755D01*
X263507Y437785D01*
X263447Y437824D01*
X263396Y437836D01*
X263349Y437858D01*
X263278Y437866D01*
X263208Y437884D01*
X263156Y437880D01*
X263105Y437885D01*
X263034Y437870D01*
X262963Y437865D01*
X262915Y437844D01*
X262864Y437833D01*
X262803Y437796D01*
X262737Y437768D01*
X262681Y437723D01*
X262653Y437707D01*
X262638Y437689D01*
X262606Y437663D01*
X259373Y434431D01*
X254977Y434431D01*
X251868Y437539D01*
X251868Y440777D01*
X251854Y440867D01*
X251846Y440958D01*
X251834Y440987D01*
X251829Y441019D01*
X251786Y441100D01*
X251750Y441184D01*
X251724Y441216D01*
X251713Y441237D01*
X251690Y441259D01*
X251645Y441315D01*
X113093Y579867D01*
X113093Y682740D01*
X113078Y682830D01*
X113071Y682921D01*
X113058Y682950D01*
X113053Y682982D01*
X113010Y683063D01*
X112975Y683147D01*
X112949Y683179D01*
X112938Y683200D01*
X112915Y683222D01*
X112870Y683278D01*
X68087Y728061D01*
X67993Y728128D01*
X67898Y728199D01*
X67892Y728201D01*
X67887Y728204D01*
X67776Y728238D01*
X67664Y728275D01*
X67658Y728275D01*
X67652Y728277D01*
X67535Y728274D01*
X67418Y728272D01*
X67411Y728270D01*
X67406Y728270D01*
X67389Y728264D01*
X67257Y728226D01*
X65325Y727425D01*
X61675Y727425D01*
X58303Y728822D01*
X55722Y731403D01*
X54325Y734775D01*
X54325Y738425D01*
X55722Y741797D01*
X58303Y744378D01*
X61675Y745775D01*
X65325Y745775D01*
X68697Y744378D01*
X71278Y741797D01*
X72675Y738425D01*
X72675Y734775D01*
X71874Y732843D01*
X71866Y732806D01*
X71859Y732792D01*
X71856Y732766D01*
X71848Y732729D01*
X71819Y732616D01*
X71820Y732609D01*
X71818Y732603D01*
X71829Y732487D01*
X71838Y732370D01*
X71841Y732365D01*
X71841Y732358D01*
X71889Y732251D01*
X71935Y732144D01*
X71939Y732138D01*
X71941Y732134D01*
X71954Y732120D01*
X72039Y732013D01*
X118682Y685370D01*
X118682Y582498D01*
X118697Y582408D01*
X118704Y582317D01*
X118717Y582287D01*
X118722Y582255D01*
X118765Y582175D01*
X118800Y582091D01*
X118826Y582059D01*
X118837Y582038D01*
X118860Y582016D01*
X118905Y581960D01*
X239456Y461409D01*
X239514Y461367D01*
X239566Y461317D01*
X239614Y461295D01*
X239656Y461265D01*
X239724Y461244D01*
X239790Y461214D01*
X239841Y461208D01*
X239891Y461193D01*
X239963Y461195D01*
X240034Y461187D01*
X240085Y461198D01*
X240137Y461199D01*
X240204Y461224D01*
X240274Y461239D01*
X240319Y461266D01*
X240368Y461284D01*
X240424Y461328D01*
X240485Y461365D01*
X240519Y461405D01*
X240560Y461437D01*
X240599Y461498D01*
X240645Y461552D01*
X240665Y461600D01*
X240693Y461644D01*
X240710Y461714D01*
X240737Y461780D01*
X240745Y461852D01*
X240753Y461883D01*
X240751Y461906D01*
X240756Y461947D01*
X240756Y462573D01*
X243045Y464862D01*
X243089Y464923D01*
X243124Y464960D01*
X243130Y464974D01*
X243157Y465006D01*
X243170Y465036D01*
X243188Y465062D01*
X243215Y465149D01*
X243249Y465234D01*
X243254Y465275D01*
X243261Y465297D01*
X243260Y465329D01*
X243268Y465400D01*
X243268Y646227D01*
X243253Y646317D01*
X243246Y646408D01*
X243233Y646438D01*
X243228Y646470D01*
X243185Y646550D01*
X243150Y646634D01*
X243124Y646666D01*
X243113Y646687D01*
X243090Y646709D01*
X243045Y646765D01*
X162271Y727539D01*
X162269Y727549D01*
X162267Y727555D01*
X162266Y727561D01*
X162211Y727664D01*
X162158Y727768D01*
X162153Y727773D01*
X162150Y727778D01*
X162066Y727858D01*
X161982Y727941D01*
X161976Y727944D01*
X161972Y727948D01*
X161955Y727956D01*
X161835Y728022D01*
X159903Y728822D01*
X157322Y731403D01*
X155925Y734775D01*
X155925Y738425D01*
X157322Y741797D01*
X159903Y744378D01*
X163275Y745775D01*
X166925Y745775D01*
X170297Y744378D01*
X172878Y741797D01*
X174275Y738425D01*
X174275Y734775D01*
X172878Y731403D01*
X170286Y728811D01*
X170275Y728807D01*
X170214Y728758D01*
X170148Y728717D01*
X170118Y728682D01*
X170083Y728653D01*
X170040Y728588D01*
X169991Y728528D01*
X169974Y728485D01*
X169950Y728446D01*
X169931Y728371D01*
X169903Y728298D01*
X169901Y728252D01*
X169889Y728208D01*
X169895Y728130D01*
X169892Y728052D01*
X169905Y728008D01*
X169909Y727962D01*
X169939Y727891D01*
X169961Y727816D01*
X169987Y727778D01*
X170005Y727736D01*
X170090Y727630D01*
X170101Y727614D01*
X170105Y727611D01*
X170110Y727605D01*
X174369Y723346D01*
X174427Y723304D01*
X174479Y723255D01*
X174526Y723233D01*
X174568Y723203D01*
X174637Y723182D01*
X174702Y723151D01*
X174754Y723146D01*
X174804Y723130D01*
X174875Y723132D01*
X174946Y723124D01*
X174997Y723135D01*
X175049Y723137D01*
X175117Y723161D01*
X175187Y723176D01*
X175231Y723203D01*
X175280Y723221D01*
X175336Y723266D01*
X175398Y723303D01*
X175432Y723342D01*
X175472Y723375D01*
X175511Y723435D01*
X175558Y723490D01*
X175577Y723538D01*
X175605Y723582D01*
X175623Y723651D01*
X175650Y723718D01*
X175658Y723789D01*
X175666Y723820D01*
X175664Y723843D01*
X175668Y723884D01*
X175668Y724511D01*
X178777Y727619D01*
X183173Y727619D01*
X186282Y724511D01*
X186282Y721273D01*
X186296Y721183D01*
X186304Y721092D01*
X186316Y721063D01*
X186321Y721031D01*
X186364Y720950D01*
X186400Y720866D01*
X186426Y720834D01*
X186437Y720813D01*
X186460Y720791D01*
X186505Y720735D01*
X227947Y679293D01*
X228021Y679240D01*
X228091Y679180D01*
X228121Y679168D01*
X228147Y679149D01*
X228234Y679122D01*
X228319Y679088D01*
X228360Y679084D01*
X228382Y679077D01*
X228414Y679078D01*
X228485Y679070D01*
X230750Y679070D01*
X230821Y679081D01*
X230893Y679083D01*
X230942Y679101D01*
X230993Y679109D01*
X231056Y679143D01*
X231124Y679168D01*
X231164Y679200D01*
X231210Y679225D01*
X231260Y679277D01*
X231316Y679321D01*
X231344Y679365D01*
X231380Y679403D01*
X231410Y679468D01*
X231449Y679528D01*
X231461Y679579D01*
X231483Y679626D01*
X231491Y679697D01*
X231509Y679767D01*
X231505Y679819D01*
X231510Y679870D01*
X231495Y679941D01*
X231490Y680012D01*
X231469Y680060D01*
X231458Y680111D01*
X231421Y680172D01*
X231393Y680238D01*
X231348Y680294D01*
X231332Y680322D01*
X231314Y680337D01*
X231288Y680369D01*
X229643Y682014D01*
X229643Y685252D01*
X229629Y685342D01*
X229621Y685433D01*
X229609Y685462D01*
X229604Y685494D01*
X229561Y685575D01*
X229525Y685659D01*
X229499Y685691D01*
X229488Y685712D01*
X229465Y685734D01*
X229420Y685790D01*
X187671Y727539D01*
X187669Y727549D01*
X187667Y727555D01*
X187666Y727561D01*
X187611Y727663D01*
X187558Y727769D01*
X187553Y727773D01*
X187550Y727778D01*
X187466Y727858D01*
X187382Y727941D01*
X187376Y727944D01*
X187372Y727948D01*
X187355Y727956D01*
X187235Y728022D01*
X185303Y728822D01*
X182722Y731403D01*
X181325Y734775D01*
X181325Y738425D01*
X182722Y741797D01*
X185303Y744378D01*
X188675Y745775D01*
X192325Y745775D01*
X195697Y744378D01*
X198278Y741797D01*
X199675Y738425D01*
X199675Y734775D01*
X198278Y731403D01*
X195686Y728811D01*
X195675Y728807D01*
X195614Y728758D01*
X195548Y728717D01*
X195518Y728682D01*
X195483Y728653D01*
X195440Y728588D01*
X195391Y728528D01*
X195374Y728485D01*
X195350Y728446D01*
X195331Y728371D01*
X195303Y728298D01*
X195301Y728252D01*
X195289Y728208D01*
X195295Y728130D01*
X195292Y728052D01*
X195305Y728008D01*
X195309Y727962D01*
X195339Y727891D01*
X195361Y727816D01*
X195387Y727778D01*
X195405Y727736D01*
X195490Y727630D01*
X195501Y727614D01*
X195505Y727611D01*
X195510Y727605D01*
X215644Y707471D01*
X215702Y707429D01*
X215754Y707380D01*
X215801Y707358D01*
X215843Y707328D01*
X215912Y707307D01*
X215977Y707276D01*
X216029Y707271D01*
X216079Y707255D01*
X216150Y707257D01*
X216221Y707249D01*
X216272Y707260D01*
X216324Y707262D01*
X216392Y707286D01*
X216462Y707301D01*
X216506Y707328D01*
X216555Y707346D01*
X216611Y707391D01*
X216673Y707428D01*
X216707Y707467D01*
X216747Y707500D01*
X216786Y707560D01*
X216833Y707615D01*
X216852Y707663D01*
X216880Y707707D01*
X216898Y707776D01*
X216925Y707843D01*
X216933Y707914D01*
X216941Y707945D01*
X216939Y707968D01*
X216943Y708009D01*
X216943Y708636D01*
X220052Y711744D01*
X224448Y711744D01*
X227557Y708636D01*
X227557Y705398D01*
X227571Y705308D01*
X227579Y705217D01*
X227591Y705188D01*
X227596Y705156D01*
X227639Y705075D01*
X227675Y704991D01*
X227701Y704959D01*
X227712Y704938D01*
X227735Y704916D01*
X227780Y704860D01*
X233373Y699267D01*
X233447Y699214D01*
X233516Y699155D01*
X233546Y699142D01*
X233572Y699124D01*
X233659Y699097D01*
X233744Y699063D01*
X233785Y699058D01*
X233807Y699051D01*
X233840Y699052D01*
X233911Y699044D01*
X237148Y699044D01*
X240257Y695936D01*
X240257Y691539D01*
X238231Y689513D01*
X238219Y689497D01*
X238203Y689485D01*
X238147Y689397D01*
X238087Y689314D01*
X238081Y689295D01*
X238070Y689278D01*
X238045Y689177D01*
X238015Y689078D01*
X238015Y689059D01*
X238010Y689039D01*
X238018Y688936D01*
X238021Y688833D01*
X238028Y688814D01*
X238030Y688794D01*
X238070Y688699D01*
X238106Y688602D01*
X238118Y688586D01*
X238126Y688568D01*
X238231Y688437D01*
X240257Y686411D01*
X240257Y682014D01*
X238612Y680369D01*
X238570Y680311D01*
X238520Y680259D01*
X238498Y680212D01*
X238468Y680170D01*
X238447Y680101D01*
X238417Y680036D01*
X238411Y679984D01*
X238396Y679934D01*
X238398Y679863D01*
X238390Y679792D01*
X238401Y679741D01*
X238402Y679689D01*
X238427Y679621D01*
X238442Y679551D01*
X238469Y679506D01*
X238487Y679458D01*
X238531Y679402D01*
X238568Y679340D01*
X238608Y679306D01*
X238640Y679266D01*
X238701Y679227D01*
X238755Y679180D01*
X238803Y679161D01*
X238847Y679133D01*
X238917Y679115D01*
X238983Y679088D01*
X239055Y679080D01*
X239086Y679072D01*
X239109Y679074D01*
X239150Y679070D01*
X247387Y679070D01*
X247477Y679084D01*
X247568Y679092D01*
X247598Y679104D01*
X247630Y679109D01*
X247710Y679152D01*
X247794Y679188D01*
X247827Y679214D01*
X247847Y679225D01*
X247869Y679248D01*
X247925Y679293D01*
X250214Y681582D01*
X254611Y681582D01*
X257719Y678473D01*
X257719Y678224D01*
X257731Y678154D01*
X257733Y678082D01*
X257751Y678033D01*
X257759Y677982D01*
X257793Y677918D01*
X257817Y677851D01*
X257850Y677810D01*
X257874Y677764D01*
X257926Y677715D01*
X257971Y677659D01*
X258015Y677631D01*
X258052Y677595D01*
X258117Y677565D01*
X258178Y677526D01*
X258228Y677513D01*
X258275Y677491D01*
X258347Y677483D01*
X258416Y677466D01*
X258468Y677470D01*
X258520Y677464D01*
X258590Y677479D01*
X258661Y677485D01*
X258709Y677505D01*
X258760Y677516D01*
X258822Y677553D01*
X258888Y677581D01*
X258944Y677626D01*
X258971Y677643D01*
X258987Y677660D01*
X259019Y677686D01*
X259739Y678407D01*
X260366Y678407D01*
X260436Y678418D01*
X260508Y678420D01*
X260557Y678438D01*
X260608Y678446D01*
X260672Y678480D01*
X260739Y678505D01*
X260780Y678537D01*
X260826Y678562D01*
X260875Y678614D01*
X260931Y678658D01*
X260959Y678702D01*
X260995Y678740D01*
X261025Y678805D01*
X261064Y678865D01*
X261077Y678916D01*
X261099Y678963D01*
X261107Y679034D01*
X261124Y679104D01*
X261120Y679156D01*
X261126Y679207D01*
X261111Y679278D01*
X261105Y679349D01*
X261085Y679397D01*
X261074Y679448D01*
X261037Y679509D01*
X261009Y679575D01*
X260964Y679631D01*
X260947Y679659D01*
X260930Y679674D01*
X260904Y679706D01*
X213071Y727539D01*
X213069Y727549D01*
X213067Y727555D01*
X213066Y727561D01*
X213011Y727663D01*
X212958Y727769D01*
X212953Y727773D01*
X212950Y727778D01*
X212866Y727858D01*
X212782Y727941D01*
X212776Y727944D01*
X212772Y727948D01*
X212755Y727956D01*
X212635Y728022D01*
X210703Y728822D01*
X208122Y731403D01*
X206725Y734775D01*
X206725Y738425D01*
X208122Y741797D01*
X210703Y744378D01*
X214075Y745775D01*
X217725Y745775D01*
X221097Y744378D01*
X223678Y741797D01*
X225075Y738425D01*
X225075Y734775D01*
X223678Y731403D01*
X221086Y728811D01*
X221075Y728807D01*
X221014Y728758D01*
X220948Y728717D01*
X220918Y728682D01*
X220883Y728653D01*
X220840Y728588D01*
X220791Y728528D01*
X220774Y728485D01*
X220750Y728446D01*
X220731Y728371D01*
X220703Y728298D01*
X220701Y728252D01*
X220689Y728208D01*
X220695Y728130D01*
X220692Y728052D01*
X220705Y728008D01*
X220709Y727962D01*
X220739Y727891D01*
X220761Y727816D01*
X220787Y727778D01*
X220805Y727736D01*
X220890Y727630D01*
X220901Y727614D01*
X220905Y727611D01*
X220910Y727605D01*
X225169Y723346D01*
X225227Y723304D01*
X225279Y723255D01*
X225326Y723233D01*
X225368Y723203D01*
X225437Y723182D01*
X225502Y723151D01*
X225554Y723146D01*
X225604Y723130D01*
X225675Y723132D01*
X225746Y723124D01*
X225797Y723135D01*
X225849Y723137D01*
X225917Y723161D01*
X225987Y723176D01*
X226031Y723203D01*
X226080Y723221D01*
X226136Y723266D01*
X226198Y723303D01*
X226232Y723342D01*
X226272Y723375D01*
X226311Y723435D01*
X226358Y723490D01*
X226377Y723538D01*
X226405Y723582D01*
X226423Y723651D01*
X226450Y723718D01*
X226458Y723789D01*
X226466Y723820D01*
X226464Y723843D01*
X226468Y723884D01*
X226468Y724511D01*
X229577Y727619D01*
X233973Y727619D01*
X237082Y724511D01*
X237082Y721273D01*
X237096Y721183D01*
X237104Y721092D01*
X237116Y721063D01*
X237121Y721031D01*
X237164Y720950D01*
X237200Y720866D01*
X237226Y720834D01*
X237237Y720813D01*
X237260Y720791D01*
X237305Y720735D01*
X277432Y680608D01*
X277432Y666187D01*
X277444Y666117D01*
X277446Y666045D01*
X277464Y665996D01*
X277472Y665945D01*
X277506Y665881D01*
X277530Y665814D01*
X277563Y665773D01*
X277587Y665727D01*
X277639Y665678D01*
X277684Y665622D01*
X277728Y665594D01*
X277765Y665558D01*
X277830Y665528D01*
X277891Y665489D01*
X277941Y665476D01*
X277988Y665454D01*
X278060Y665446D01*
X278129Y665429D01*
X278181Y665433D01*
X278233Y665427D01*
X278303Y665442D01*
X278374Y665448D01*
X278422Y665468D01*
X278473Y665479D01*
X278535Y665516D01*
X278601Y665544D01*
X278657Y665589D01*
X278684Y665606D01*
X278700Y665623D01*
X278732Y665649D01*
X280377Y667294D01*
X284773Y667294D01*
X287882Y664186D01*
X287882Y660948D01*
X287896Y660858D01*
X287904Y660767D01*
X287916Y660738D01*
X287921Y660706D01*
X287964Y660625D01*
X288000Y660541D01*
X288026Y660509D01*
X288037Y660488D01*
X288060Y660466D01*
X288105Y660410D01*
X396495Y552020D01*
X396495Y493975D01*
X396509Y493885D01*
X396517Y493794D01*
X396529Y493765D01*
X396534Y493733D01*
X396577Y493652D01*
X396613Y493568D01*
X396639Y493536D01*
X396650Y493515D01*
X396673Y493493D01*
X396718Y493437D01*
X399007Y491148D01*
X399007Y486752D01*
X395898Y483643D01*
X391502Y483643D01*
X388393Y486752D01*
X388393Y491148D01*
X390682Y493437D01*
X390735Y493511D01*
X390795Y493581D01*
X390807Y493611D01*
X390826Y493637D01*
X390853Y493724D01*
X390887Y493809D01*
X390891Y493850D01*
X390898Y493872D01*
X390897Y493904D01*
X390905Y493975D01*
X390905Y549390D01*
X390891Y549480D01*
X390883Y549571D01*
X390871Y549600D01*
X390866Y549632D01*
X390823Y549713D01*
X390787Y549797D01*
X390761Y549829D01*
X390750Y549850D01*
X390727Y549872D01*
X390682Y549928D01*
X284152Y656458D01*
X284078Y656511D01*
X284009Y656570D01*
X283979Y656583D01*
X283953Y656601D01*
X283866Y656628D01*
X283781Y656662D01*
X283740Y656667D01*
X283718Y656674D01*
X283685Y656673D01*
X283614Y656681D01*
X281368Y656681D01*
X281349Y656678D01*
X281329Y656680D01*
X281228Y656658D01*
X281126Y656641D01*
X281108Y656632D01*
X281089Y656627D01*
X281000Y656574D01*
X280908Y656526D01*
X280895Y656512D01*
X280878Y656501D01*
X280810Y656423D01*
X280739Y656348D01*
X280731Y656330D01*
X280718Y656314D01*
X280679Y656218D01*
X280635Y656125D01*
X280633Y656105D01*
X280626Y656086D01*
X280607Y655920D01*
X280607Y538425D01*
X280622Y538335D01*
X280629Y538244D01*
X280642Y538215D01*
X280647Y538183D01*
X280690Y538102D01*
X280725Y538018D01*
X280751Y537986D01*
X280762Y537965D01*
X280785Y537943D01*
X280830Y537887D01*
X283119Y535598D01*
X283119Y531202D01*
X280011Y528093D01*
X275614Y528093D01*
X273969Y529738D01*
X273911Y529780D01*
X273859Y529830D01*
X273812Y529852D01*
X273770Y529882D01*
X273701Y529903D01*
X273636Y529933D01*
X273584Y529939D01*
X273534Y529954D01*
X273463Y529952D01*
X273392Y529960D01*
X273341Y529949D01*
X273289Y529948D01*
X273221Y529923D01*
X273151Y529908D01*
X273106Y529881D01*
X273058Y529863D01*
X273002Y529819D01*
X272940Y529782D01*
X272906Y529742D01*
X272866Y529710D01*
X272827Y529649D01*
X272780Y529595D01*
X272761Y529547D01*
X272733Y529503D01*
X272715Y529433D01*
X272688Y529367D01*
X272680Y529295D01*
X272672Y529264D01*
X272674Y529241D01*
X272670Y529200D01*
X272670Y511556D01*
X272673Y511536D01*
X272671Y511517D01*
X272693Y511415D01*
X272709Y511313D01*
X272719Y511296D01*
X272723Y511276D01*
X272776Y511187D01*
X272825Y511096D01*
X272839Y511082D01*
X272849Y511065D01*
X272928Y510998D01*
X273003Y510926D01*
X273021Y510918D01*
X273036Y510905D01*
X273132Y510866D01*
X273226Y510823D01*
X273246Y510821D01*
X273264Y510813D01*
X273431Y510795D01*
X363275Y510795D01*
X363365Y510809D01*
X363456Y510817D01*
X363485Y510829D01*
X363517Y510834D01*
X363598Y510877D01*
X363682Y510913D01*
X363714Y510939D01*
X363735Y510950D01*
X363757Y510973D01*
X363813Y511018D01*
X366102Y513307D01*
X370498Y513307D01*
X373607Y510198D01*
X373607Y505802D01*
X370498Y502693D01*
X366102Y502693D01*
X363813Y504982D01*
X363739Y505035D01*
X363669Y505095D01*
X363639Y505107D01*
X363613Y505126D01*
X363526Y505153D01*
X363441Y505187D01*
X363400Y505191D01*
X363378Y505198D01*
X363346Y505197D01*
X363275Y505205D01*
X270256Y505205D01*
X270236Y505202D01*
X270217Y505204D01*
X270115Y505182D01*
X270013Y505166D01*
X269996Y505156D01*
X269976Y505152D01*
X269887Y505099D01*
X269796Y505050D01*
X269782Y505036D01*
X269765Y505026D01*
X269698Y504947D01*
X269626Y504872D01*
X269618Y504854D01*
X269605Y504839D01*
X269566Y504743D01*
X269523Y504649D01*
X269521Y504629D01*
X269513Y504611D01*
X269495Y504444D01*
X269495Y426475D01*
X269506Y426404D01*
X269508Y426332D01*
X269526Y426283D01*
X269534Y426232D01*
X269568Y426169D01*
X269593Y426101D01*
X269625Y426061D01*
X269650Y426015D01*
X269702Y425965D01*
X269746Y425909D01*
X269790Y425881D01*
X269828Y425845D01*
X269893Y425815D01*
X269953Y425776D01*
X270004Y425764D01*
X270051Y425742D01*
X270122Y425734D01*
X270192Y425716D01*
X270244Y425720D01*
X270295Y425715D01*
X270366Y425730D01*
X270437Y425735D01*
X270485Y425756D01*
X270536Y425767D01*
X270597Y425804D01*
X270663Y425832D01*
X270719Y425877D01*
X270747Y425893D01*
X270762Y425911D01*
X270794Y425937D01*
X272439Y427582D01*
X276836Y427582D01*
X277537Y426880D01*
X277611Y426827D01*
X277681Y426768D01*
X277711Y426755D01*
X277737Y426737D01*
X277824Y426710D01*
X277909Y426676D01*
X277950Y426671D01*
X277972Y426664D01*
X278004Y426665D01*
X278075Y426657D01*
X299775Y426657D01*
X299865Y426672D01*
X299956Y426679D01*
X299985Y426692D01*
X300017Y426697D01*
X300098Y426740D01*
X300182Y426775D01*
X300214Y426801D01*
X300235Y426812D01*
X300257Y426835D01*
X300313Y426880D01*
X302602Y429169D01*
X306998Y429169D01*
X310107Y426061D01*
X310107Y421664D01*
X306998Y418556D01*
X302602Y418556D01*
X300313Y420845D01*
X300239Y420898D01*
X300169Y420957D01*
X300139Y420970D01*
X300113Y420988D01*
X300026Y421015D01*
X299941Y421049D01*
X299900Y421054D01*
X299878Y421061D01*
X299846Y421060D01*
X299775Y421068D01*
X280705Y421068D01*
X280686Y421065D01*
X280666Y421067D01*
X280565Y421045D01*
X280463Y421028D01*
X280445Y421019D01*
X280426Y421014D01*
X280337Y420961D01*
X280245Y420913D01*
X280232Y420899D01*
X280215Y420888D01*
X280147Y420810D01*
X280076Y420735D01*
X280068Y420717D01*
X280055Y420701D01*
X280016Y420605D01*
X279972Y420512D01*
X279970Y420492D01*
X279963Y420473D01*
X279944Y420307D01*
X279944Y420077D01*
X276836Y416968D01*
X272439Y416968D01*
X270794Y418613D01*
X270736Y418655D01*
X270684Y418705D01*
X270637Y418727D01*
X270595Y418757D01*
X270526Y418778D01*
X270461Y418808D01*
X270409Y418814D01*
X270359Y418829D01*
X270288Y418827D01*
X270217Y418835D01*
X270166Y418824D01*
X270114Y418823D01*
X270046Y418798D01*
X269976Y418783D01*
X269931Y418756D01*
X269883Y418738D01*
X269827Y418694D01*
X269765Y418657D01*
X269731Y418617D01*
X269691Y418585D01*
X269652Y418524D01*
X269605Y418470D01*
X269586Y418422D01*
X269558Y418378D01*
X269540Y418308D01*
X269513Y418242D01*
X269505Y418170D01*
X269497Y418139D01*
X269499Y418116D01*
X269495Y418075D01*
X269495Y398725D01*
X269509Y398635D01*
X269517Y398544D01*
X269529Y398515D01*
X269534Y398483D01*
X269577Y398402D01*
X269613Y398318D01*
X269639Y398286D01*
X269650Y398265D01*
X269673Y398243D01*
X269718Y398187D01*
X272007Y395898D01*
X272007Y391502D01*
X269718Y389213D01*
X269665Y389139D01*
X269605Y389069D01*
X269593Y389039D01*
X269574Y389013D01*
X269547Y388926D01*
X269513Y388841D01*
X269509Y388800D01*
X269502Y388778D01*
X269503Y388746D01*
X269495Y388675D01*
X269495Y382025D01*
X269506Y381954D01*
X269508Y381882D01*
X269526Y381833D01*
X269534Y381782D01*
X269568Y381719D01*
X269593Y381651D01*
X269625Y381611D01*
X269650Y381565D01*
X269702Y381515D01*
X269746Y381459D01*
X269790Y381431D01*
X269828Y381395D01*
X269893Y381365D01*
X269953Y381326D01*
X270004Y381314D01*
X270051Y381292D01*
X270122Y381284D01*
X270192Y381266D01*
X270244Y381270D01*
X270295Y381265D01*
X270366Y381280D01*
X270437Y381285D01*
X270485Y381306D01*
X270536Y381317D01*
X270597Y381354D01*
X270663Y381382D01*
X270719Y381427D01*
X270747Y381443D01*
X270762Y381461D01*
X270794Y381487D01*
X272439Y383132D01*
X275677Y383132D01*
X275767Y383146D01*
X275858Y383154D01*
X275887Y383166D01*
X275919Y383171D01*
X276000Y383214D01*
X276084Y383250D01*
X276116Y383276D01*
X276137Y383287D01*
X276159Y383310D01*
X276215Y383355D01*
X342133Y449273D01*
X342186Y449347D01*
X342245Y449416D01*
X342258Y449446D01*
X342276Y449472D01*
X342303Y449559D01*
X342337Y449644D01*
X342342Y449685D01*
X342349Y449707D01*
X342348Y449740D01*
X342356Y449811D01*
X342356Y453048D01*
X345464Y456157D01*
X349861Y456157D01*
X352969Y453048D01*
X352969Y448652D01*
X349861Y445543D01*
X346623Y445543D01*
X346533Y445529D01*
X346442Y445521D01*
X346413Y445509D01*
X346381Y445504D01*
X346300Y445461D01*
X346216Y445425D01*
X346184Y445399D01*
X346163Y445388D01*
X346141Y445365D01*
X346085Y445320D01*
X280167Y379402D01*
X280114Y379328D01*
X280055Y379259D01*
X280042Y379229D01*
X280024Y379203D01*
X279997Y379116D01*
X279963Y379031D01*
X279958Y378990D01*
X279951Y378968D01*
X279952Y378935D01*
X279944Y378864D01*
X279944Y375627D01*
X276836Y372518D01*
X272439Y372518D01*
X270794Y374163D01*
X270736Y374205D01*
X270684Y374255D01*
X270637Y374277D01*
X270595Y374307D01*
X270526Y374328D01*
X270461Y374358D01*
X270409Y374364D01*
X270359Y374379D01*
X270288Y374377D01*
X270217Y374385D01*
X270166Y374374D01*
X270114Y374373D01*
X270046Y374348D01*
X269976Y374333D01*
X269931Y374306D01*
X269883Y374288D01*
X269827Y374244D01*
X269765Y374207D01*
X269731Y374167D01*
X269691Y374135D01*
X269652Y374074D01*
X269605Y374020D01*
X269586Y373972D01*
X269558Y373928D01*
X269540Y373858D01*
X269513Y373792D01*
X269505Y373720D01*
X269497Y373689D01*
X269499Y373666D01*
X269495Y373625D01*
X269495Y360625D01*
X269509Y360535D01*
X269517Y360444D01*
X269529Y360415D01*
X269534Y360383D01*
X269577Y360302D01*
X269613Y360218D01*
X269639Y360186D01*
X269650Y360165D01*
X269673Y360143D01*
X269718Y360087D01*
X272007Y357798D01*
X272007Y353402D01*
X268898Y350293D01*
X264502Y350293D01*
X261393Y353402D01*
X261393Y355882D01*
X261390Y355902D01*
X261392Y355921D01*
X261370Y356023D01*
X261354Y356125D01*
X261344Y356142D01*
X261340Y356162D01*
X261287Y356251D01*
X261238Y356342D01*
X261224Y356356D01*
X261214Y356373D01*
X261135Y356440D01*
X261060Y356512D01*
X261042Y356520D01*
X261027Y356533D01*
X260931Y356572D01*
X260837Y356615D01*
X260817Y356617D01*
X260799Y356625D01*
X260632Y356643D01*
X257723Y356643D01*
X257633Y356629D01*
X257542Y356621D01*
X257513Y356609D01*
X257481Y356604D01*
X257400Y356561D01*
X257316Y356525D01*
X257284Y356499D01*
X257263Y356488D01*
X257241Y356465D01*
X257185Y356420D01*
X256745Y355980D01*
X225688Y355980D01*
X225598Y355966D01*
X225507Y355958D01*
X225477Y355946D01*
X225445Y355941D01*
X225365Y355898D01*
X225281Y355862D01*
X225249Y355836D01*
X225228Y355825D01*
X225206Y355802D01*
X225150Y355757D01*
X222861Y353468D01*
X218464Y353468D01*
X216175Y355757D01*
X216101Y355810D01*
X216032Y355870D01*
X216002Y355882D01*
X215976Y355901D01*
X215889Y355928D01*
X215804Y355962D01*
X215763Y355966D01*
X215741Y355973D01*
X215708Y355972D01*
X215637Y355980D01*
X128473Y355980D01*
X128383Y355966D01*
X128292Y355958D01*
X128262Y355946D01*
X128230Y355941D01*
X128150Y355898D01*
X128066Y355862D01*
X128034Y355836D01*
X128013Y355825D01*
X127991Y355802D01*
X127935Y355757D01*
X117584Y345407D01*
X117542Y345349D01*
X117493Y345297D01*
X117471Y345249D01*
X117441Y345207D01*
X117419Y345139D01*
X117389Y345073D01*
X117384Y345022D01*
X117368Y344972D01*
X117370Y344900D01*
X117362Y344829D01*
X117373Y344778D01*
X117375Y344726D01*
X117399Y344659D01*
X117414Y344589D01*
X117441Y344544D01*
X117459Y344495D01*
X117504Y344439D01*
X117541Y344378D01*
X117580Y344344D01*
X117613Y344303D01*
X117673Y344264D01*
X117728Y344218D01*
X117776Y344198D01*
X117820Y344170D01*
X117889Y344153D01*
X117956Y344126D01*
X118027Y344118D01*
X118058Y344110D01*
X118081Y344112D01*
X118122Y344107D01*
X214050Y344107D01*
X214140Y344122D01*
X214231Y344129D01*
X214260Y344142D01*
X214292Y344147D01*
X214373Y344190D01*
X214457Y344225D01*
X214489Y344251D01*
X214510Y344262D01*
X214532Y344285D01*
X214588Y344330D01*
X216877Y346619D01*
X221273Y346619D01*
X223562Y344330D01*
X223636Y344277D01*
X223706Y344218D01*
X223736Y344205D01*
X223762Y344187D01*
X223849Y344160D01*
X223934Y344126D01*
X223975Y344121D01*
X223997Y344114D01*
X224029Y344115D01*
X224100Y344107D01*
X331525Y344107D01*
X331615Y344122D01*
X331706Y344129D01*
X331735Y344142D01*
X331767Y344147D01*
X331848Y344190D01*
X331932Y344225D01*
X331964Y344251D01*
X331985Y344262D01*
X332007Y344285D01*
X332063Y344330D01*
X334352Y346619D01*
X338748Y346619D01*
X341857Y343511D01*
X341857Y339114D01*
X338748Y336006D01*
X334352Y336006D01*
X332063Y338295D01*
X331989Y338348D01*
X331919Y338407D01*
X331889Y338420D01*
X331863Y338438D01*
X331776Y338465D01*
X331691Y338499D01*
X331650Y338504D01*
X331628Y338511D01*
X331596Y338510D01*
X331525Y338518D01*
X224100Y338518D01*
X224010Y338503D01*
X223919Y338496D01*
X223890Y338483D01*
X223858Y338478D01*
X223777Y338435D01*
X223693Y338400D01*
X223661Y338374D01*
X223640Y338363D01*
X223618Y338340D01*
X223562Y338295D01*
X221273Y336006D01*
X216877Y336006D01*
X214588Y338295D01*
X214514Y338348D01*
X214444Y338407D01*
X214414Y338420D01*
X214388Y338438D01*
X214301Y338465D01*
X214216Y338499D01*
X214175Y338504D01*
X214153Y338511D01*
X214121Y338510D01*
X214050Y338518D01*
X117360Y338518D01*
X117270Y338503D01*
X117179Y338496D01*
X117150Y338483D01*
X117118Y338478D01*
X117037Y338435D01*
X116953Y338400D01*
X116921Y338374D01*
X116900Y338363D01*
X116878Y338340D01*
X116822Y338295D01*
X115334Y336806D01*
X115292Y336748D01*
X115242Y336696D01*
X115220Y336649D01*
X115190Y336607D01*
X115169Y336538D01*
X115139Y336473D01*
X115133Y336421D01*
X115118Y336371D01*
X115120Y336300D01*
X115112Y336229D01*
X115123Y336178D01*
X115124Y336126D01*
X115149Y336058D01*
X115164Y335988D01*
X115191Y335943D01*
X115209Y335895D01*
X115253Y335839D01*
X115290Y335777D01*
X115330Y335743D01*
X115362Y335703D01*
X115423Y335664D01*
X115477Y335617D01*
X115525Y335598D01*
X115569Y335570D01*
X115639Y335552D01*
X115705Y335525D01*
X115777Y335517D01*
X115808Y335509D01*
X115831Y335511D01*
X115872Y335507D01*
X116498Y335507D01*
X119607Y332398D01*
X119607Y328002D01*
X117318Y325713D01*
X117265Y325639D01*
X117205Y325569D01*
X117193Y325539D01*
X117174Y325513D01*
X117147Y325426D01*
X117113Y325341D01*
X117109Y325300D01*
X117102Y325278D01*
X117103Y325246D01*
X117095Y325175D01*
X117095Y295656D01*
X117098Y295636D01*
X117096Y295617D01*
X117118Y295515D01*
X117134Y295413D01*
X117144Y295396D01*
X117148Y295376D01*
X117201Y295287D01*
X117250Y295196D01*
X117264Y295182D01*
X117274Y295165D01*
X117353Y295098D01*
X117428Y295026D01*
X117446Y295018D01*
X117461Y295005D01*
X117557Y294966D01*
X117651Y294923D01*
X117671Y294921D01*
X117689Y294913D01*
X117856Y294895D01*
X212344Y294895D01*
X212364Y294898D01*
X212383Y294896D01*
X212485Y294918D01*
X212587Y294934D01*
X212604Y294944D01*
X212624Y294948D01*
X212713Y295001D01*
X212804Y295050D01*
X212818Y295064D01*
X212835Y295074D01*
X212902Y295153D01*
X212974Y295228D01*
X212982Y295246D01*
X212995Y295261D01*
X213034Y295357D01*
X213077Y295451D01*
X213079Y295471D01*
X213087Y295489D01*
X213105Y295656D01*
X213105Y299775D01*
X213091Y299865D01*
X213083Y299956D01*
X213071Y299985D01*
X213066Y300017D01*
X213023Y300098D01*
X212987Y300182D01*
X212961Y300214D01*
X212950Y300235D01*
X212927Y300257D01*
X212882Y300313D01*
X210593Y302602D01*
X210593Y306998D01*
X213702Y310107D01*
X218098Y310107D01*
X221207Y306998D01*
X221207Y302602D01*
X218918Y300313D01*
X218865Y300239D01*
X218805Y300169D01*
X218793Y300139D01*
X218774Y300113D01*
X218747Y300026D01*
X218713Y299941D01*
X218709Y299900D01*
X218702Y299878D01*
X218703Y299846D01*
X218695Y299775D01*
X218695Y255473D01*
X218709Y255383D01*
X218717Y255292D01*
X218729Y255262D01*
X218734Y255230D01*
X218777Y255150D01*
X218813Y255066D01*
X218839Y255034D01*
X218850Y255013D01*
X218873Y254991D01*
X218918Y254935D01*
X290523Y183330D01*
X290597Y183277D01*
X290666Y183217D01*
X290696Y183205D01*
X290722Y183186D01*
X290809Y183159D01*
X290894Y183125D01*
X290935Y183121D01*
X290957Y183114D01*
X290990Y183115D01*
X291061Y183107D01*
X294298Y183107D01*
X297407Y179998D01*
X297407Y175602D01*
X294298Y172493D01*
X289902Y172493D01*
X286793Y175602D01*
X286793Y178839D01*
X286779Y178929D01*
X286771Y179020D01*
X286759Y179050D01*
X286754Y179082D01*
X286711Y179162D01*
X286675Y179246D01*
X286649Y179278D01*
X286638Y179299D01*
X286615Y179321D01*
X286570Y179377D01*
X213105Y252842D01*
X213105Y288544D01*
X213102Y288564D01*
X213104Y288583D01*
X213082Y288685D01*
X213066Y288787D01*
X213056Y288804D01*
X213052Y288824D01*
X212999Y288913D01*
X212950Y289004D01*
X212936Y289018D01*
X212926Y289035D01*
X212847Y289102D01*
X212772Y289174D01*
X212754Y289182D01*
X212739Y289195D01*
X212643Y289234D01*
X212549Y289277D01*
X212529Y289279D01*
X212511Y289287D01*
X212344Y289305D01*
X113142Y289305D01*
X111505Y290942D01*
X111505Y325175D01*
X111491Y325265D01*
X111483Y325356D01*
X111471Y325385D01*
X111466Y325417D01*
X111423Y325498D01*
X111387Y325582D01*
X111361Y325614D01*
X111350Y325635D01*
X111327Y325657D01*
X111282Y325713D01*
X108993Y328002D01*
X108993Y328628D01*
X108982Y328699D01*
X108980Y328771D01*
X108962Y328820D01*
X108954Y328871D01*
X108920Y328934D01*
X108895Y329002D01*
X108863Y329042D01*
X108838Y329088D01*
X108786Y329138D01*
X108742Y329194D01*
X108698Y329222D01*
X108660Y329258D01*
X108595Y329288D01*
X108535Y329327D01*
X108484Y329339D01*
X108437Y329361D01*
X108366Y329369D01*
X108296Y329387D01*
X108244Y329383D01*
X108193Y329388D01*
X108122Y329373D01*
X108051Y329368D01*
X108003Y329347D01*
X107952Y329336D01*
X107891Y329299D01*
X107825Y329271D01*
X107769Y329226D01*
X107741Y329210D01*
X107726Y329192D01*
X107694Y329166D01*
X66518Y287990D01*
X66465Y287916D01*
X66405Y287847D01*
X66393Y287817D01*
X66374Y287791D01*
X66347Y287704D01*
X66313Y287619D01*
X66309Y287578D01*
X66302Y287556D01*
X66303Y287523D01*
X66295Y287452D01*
X66295Y33967D01*
X66314Y33853D01*
X66331Y33736D01*
X66333Y33731D01*
X66334Y33725D01*
X66389Y33622D01*
X66442Y33517D01*
X66447Y33513D01*
X66450Y33507D01*
X66534Y33427D01*
X66618Y33345D01*
X66624Y33341D01*
X66628Y33338D01*
X66645Y33330D01*
X66765Y33264D01*
X68323Y32618D01*
X70718Y30223D01*
X72015Y27094D01*
X72015Y23706D01*
X70718Y20577D01*
X68323Y18182D01*
X65194Y16885D01*
X61806Y16885D01*
X58677Y18182D01*
X56282Y20577D01*
X54985Y23706D01*
X54985Y27094D01*
X56282Y30223D01*
X58677Y32618D01*
X60235Y33264D01*
X60335Y33326D01*
X60435Y33386D01*
X60439Y33390D01*
X60444Y33394D01*
X60519Y33484D01*
X60595Y33572D01*
X60597Y33578D01*
X60601Y33583D01*
X60643Y33691D01*
X60687Y33801D01*
X60688Y33808D01*
X60689Y33813D01*
X60690Y33831D01*
X60705Y33967D01*
X60705Y266700D01*
X60702Y266720D01*
X60704Y266739D01*
X60682Y266841D01*
X60666Y266943D01*
X60656Y266960D01*
X60652Y266980D01*
X60599Y267069D01*
X60550Y267160D01*
X60536Y267174D01*
X60526Y267191D01*
X60447Y267258D01*
X60372Y267330D01*
X60354Y267338D01*
X60339Y267351D01*
X60243Y267390D01*
X60149Y267433D01*
X60129Y267435D01*
X60111Y267443D01*
X59944Y267461D01*
X41656Y267461D01*
X41636Y267458D01*
X41617Y267460D01*
X41515Y267438D01*
X41413Y267422D01*
X41396Y267412D01*
X41376Y267408D01*
X41287Y267355D01*
X41196Y267306D01*
X41182Y267292D01*
X41165Y267282D01*
X41098Y267203D01*
X41026Y267128D01*
X41018Y267110D01*
X41005Y267095D01*
X40966Y266999D01*
X40923Y266905D01*
X40921Y266885D01*
X40913Y266867D01*
X40895Y266700D01*
X40895Y34676D01*
X40898Y34656D01*
X40896Y34637D01*
X40918Y34535D01*
X40934Y34433D01*
X40944Y34416D01*
X40948Y34396D01*
X41001Y34307D01*
X41050Y34216D01*
X41064Y34202D01*
X41074Y34185D01*
X41153Y34118D01*
X41228Y34046D01*
X41246Y34038D01*
X41261Y34025D01*
X41357Y33986D01*
X41451Y33943D01*
X41471Y33941D01*
X41489Y33933D01*
X41656Y33915D01*
X45722Y33915D01*
X46615Y33022D01*
X46615Y17778D01*
X45722Y16885D01*
X30478Y16885D01*
X29585Y17778D01*
X29585Y33022D01*
X30478Y33915D01*
X34544Y33915D01*
X34564Y33918D01*
X34583Y33916D01*
X34685Y33938D01*
X34787Y33954D01*
X34804Y33964D01*
X34824Y33968D01*
X34913Y34021D01*
X35004Y34070D01*
X35018Y34084D01*
X35035Y34094D01*
X35102Y34173D01*
X35174Y34248D01*
X35182Y34266D01*
X35195Y34281D01*
X35234Y34377D01*
X35277Y34471D01*
X35279Y34491D01*
X35287Y34509D01*
X35305Y34676D01*
X35305Y266700D01*
X35302Y266720D01*
X35304Y266739D01*
X35282Y266841D01*
X35266Y266943D01*
X35256Y266960D01*
X35252Y266980D01*
X35199Y267069D01*
X35150Y267160D01*
X35136Y267174D01*
X35126Y267191D01*
X35047Y267258D01*
X34972Y267330D01*
X34954Y267338D01*
X34939Y267351D01*
X34843Y267390D01*
X34749Y267433D01*
X34729Y267435D01*
X34711Y267443D01*
X34544Y267461D01*
X10922Y267461D01*
X10902Y267458D01*
X10883Y267460D01*
X10781Y267438D01*
X10679Y267422D01*
X10662Y267412D01*
X10642Y267408D01*
X10553Y267355D01*
X10462Y267306D01*
X10448Y267292D01*
X10431Y267282D01*
X10364Y267203D01*
X10292Y267128D01*
X10284Y267110D01*
X10271Y267095D01*
X10232Y266999D01*
X10189Y266905D01*
X10187Y266885D01*
X10179Y266867D01*
X10161Y266700D01*
X10161Y10922D01*
X10164Y10902D01*
X10162Y10883D01*
X10184Y10781D01*
X10200Y10679D01*
X10210Y10662D01*
X10214Y10642D01*
X10267Y10553D01*
X10316Y10462D01*
X10330Y10448D01*
X10340Y10431D01*
X10419Y10364D01*
X10494Y10292D01*
X10512Y10284D01*
X10527Y10271D01*
X10623Y10232D01*
X10717Y10189D01*
X10737Y10187D01*
X10755Y10179D01*
X10922Y10161D01*
X304800Y10161D01*
X304820Y10164D01*
G37*
%LPC*%
G36*
X115277Y359818D02*
X115277Y359818D01*
X112168Y362927D01*
X112168Y367323D01*
X114457Y369612D01*
X114510Y369686D01*
X114570Y369756D01*
X114582Y369786D01*
X114601Y369812D01*
X114628Y369899D01*
X114662Y369984D01*
X114666Y370025D01*
X114673Y370047D01*
X114672Y370079D01*
X114680Y370150D01*
X114680Y541452D01*
X114666Y541542D01*
X114658Y541633D01*
X114646Y541663D01*
X114641Y541695D01*
X114598Y541775D01*
X114562Y541859D01*
X114536Y541891D01*
X114525Y541912D01*
X114502Y541934D01*
X114457Y541990D01*
X106141Y550307D01*
X106047Y550374D01*
X105952Y550445D01*
X105946Y550447D01*
X105941Y550450D01*
X105830Y550484D01*
X105719Y550521D01*
X105712Y550521D01*
X105706Y550523D01*
X105589Y550519D01*
X105473Y550518D01*
X105465Y550516D01*
X105460Y550516D01*
X105443Y550510D01*
X105311Y550472D01*
X103413Y549685D01*
X99787Y549685D01*
X96437Y551073D01*
X93873Y553637D01*
X92485Y556987D01*
X92485Y560613D01*
X93873Y563963D01*
X96437Y566527D01*
X99787Y567915D01*
X103413Y567915D01*
X106763Y566527D01*
X109327Y563963D01*
X110715Y560613D01*
X110715Y556987D01*
X109928Y555089D01*
X109902Y554975D01*
X109873Y554861D01*
X109874Y554855D01*
X109872Y554849D01*
X109883Y554732D01*
X109892Y554616D01*
X109895Y554611D01*
X109895Y554604D01*
X109943Y554497D01*
X109989Y554390D01*
X109993Y554384D01*
X109995Y554379D01*
X110008Y554366D01*
X110093Y554259D01*
X118410Y545943D01*
X120270Y544083D01*
X120270Y370150D01*
X120284Y370060D01*
X120292Y369969D01*
X120304Y369940D01*
X120309Y369908D01*
X120352Y369827D01*
X120388Y369743D01*
X120414Y369711D01*
X120425Y369690D01*
X120448Y369668D01*
X120493Y369612D01*
X122782Y367323D01*
X122782Y362927D01*
X119673Y359818D01*
X115277Y359818D01*
G37*
%LPD*%
%LPC*%
G36*
X516690Y360839D02*
X516690Y360839D01*
X509280Y363909D01*
X503609Y369580D01*
X500539Y376990D01*
X500539Y385010D01*
X503609Y392420D01*
X509280Y398091D01*
X516690Y401161D01*
X524710Y401161D01*
X532120Y398091D01*
X537791Y392420D01*
X540861Y385010D01*
X540861Y376990D01*
X537791Y369580D01*
X532120Y363909D01*
X524710Y360839D01*
X516690Y360839D01*
G37*
%LPD*%
%LPC*%
G36*
X580190Y360839D02*
X580190Y360839D01*
X572780Y363909D01*
X567109Y369580D01*
X564039Y376990D01*
X564039Y385010D01*
X567109Y392420D01*
X572780Y398091D01*
X580190Y401161D01*
X588210Y401161D01*
X595620Y398091D01*
X601291Y392420D01*
X604361Y385010D01*
X604361Y376990D01*
X601291Y369580D01*
X595620Y363909D01*
X588210Y360839D01*
X580190Y360839D01*
G37*
%LPD*%
%LPC*%
G36*
X167664Y701131D02*
X167664Y701131D01*
X164556Y704239D01*
X164556Y707477D01*
X164553Y707492D01*
X164555Y707505D01*
X164541Y707569D01*
X164534Y707658D01*
X164521Y707687D01*
X164516Y707719D01*
X164503Y707744D01*
X164502Y707746D01*
X164499Y707751D01*
X164473Y707800D01*
X164438Y707884D01*
X164412Y707916D01*
X164401Y707937D01*
X164378Y707959D01*
X164333Y708015D01*
X144287Y728061D01*
X144193Y728128D01*
X144098Y728199D01*
X144092Y728201D01*
X144087Y728204D01*
X143976Y728238D01*
X143864Y728275D01*
X143858Y728275D01*
X143852Y728277D01*
X143735Y728274D01*
X143618Y728272D01*
X143611Y728270D01*
X143606Y728270D01*
X143589Y728264D01*
X143457Y728226D01*
X141525Y727425D01*
X137875Y727425D01*
X134503Y728822D01*
X131922Y731403D01*
X130525Y734775D01*
X130525Y738425D01*
X131922Y741797D01*
X134503Y744378D01*
X137875Y745775D01*
X141525Y745775D01*
X144897Y744378D01*
X147478Y741797D01*
X148875Y738425D01*
X148875Y734775D01*
X148074Y732843D01*
X148066Y732806D01*
X148059Y732792D01*
X148056Y732766D01*
X148048Y732729D01*
X148019Y732616D01*
X148020Y732609D01*
X148018Y732603D01*
X148029Y732487D01*
X148038Y732370D01*
X148041Y732365D01*
X148041Y732358D01*
X148089Y732251D01*
X148135Y732144D01*
X148139Y732138D01*
X148141Y732134D01*
X148154Y732120D01*
X148239Y732013D01*
X168285Y711967D01*
X168359Y711914D01*
X168429Y711855D01*
X168459Y711842D01*
X168485Y711824D01*
X168572Y711797D01*
X168657Y711763D01*
X168698Y711758D01*
X168720Y711751D01*
X168752Y711752D01*
X168823Y711744D01*
X172061Y711744D01*
X175169Y708636D01*
X175169Y704239D01*
X172061Y701131D01*
X167664Y701131D01*
G37*
%LPD*%
%LPC*%
G36*
X29818Y727425D02*
X29818Y727425D01*
X28925Y728318D01*
X28925Y744882D01*
X29818Y745775D01*
X46382Y745775D01*
X47275Y744882D01*
X47275Y728318D01*
X46382Y727425D01*
X29818Y727425D01*
G37*
%LPD*%
%LPC*%
G36*
X239475Y727425D02*
X239475Y727425D01*
X236103Y728822D01*
X233522Y731403D01*
X232125Y734775D01*
X232125Y738425D01*
X233522Y741797D01*
X236103Y744378D01*
X239475Y745775D01*
X243125Y745775D01*
X246497Y744378D01*
X249078Y741797D01*
X250475Y738425D01*
X250475Y734775D01*
X249078Y731403D01*
X246497Y728822D01*
X243125Y727425D01*
X239475Y727425D01*
G37*
%LPD*%
%LPC*%
G36*
X87075Y727425D02*
X87075Y727425D01*
X83703Y728822D01*
X81122Y731403D01*
X79725Y734775D01*
X79725Y738425D01*
X81122Y741797D01*
X83703Y744378D01*
X87075Y745775D01*
X90725Y745775D01*
X94097Y744378D01*
X96678Y741797D01*
X98075Y738425D01*
X98075Y734775D01*
X96678Y731403D01*
X94097Y728822D01*
X90725Y727425D01*
X87075Y727425D01*
G37*
%LPD*%
%LPC*%
G36*
X112475Y727425D02*
X112475Y727425D01*
X109103Y728822D01*
X106522Y731403D01*
X105125Y734775D01*
X105125Y738425D01*
X106522Y741797D01*
X109103Y744378D01*
X112475Y745775D01*
X116125Y745775D01*
X119497Y744378D01*
X122078Y741797D01*
X123475Y738425D01*
X123475Y734775D01*
X122078Y731403D01*
X119497Y728822D01*
X116125Y727425D01*
X112475Y727425D01*
G37*
%LPD*%
%LPC*%
G36*
X23587Y498885D02*
X23587Y498885D01*
X20237Y500273D01*
X17673Y502837D01*
X16285Y506187D01*
X16285Y509813D01*
X17673Y513163D01*
X20237Y515727D01*
X23587Y517115D01*
X27213Y517115D01*
X30563Y515727D01*
X33127Y513163D01*
X34515Y509813D01*
X34515Y506187D01*
X33127Y502837D01*
X30563Y500273D01*
X27213Y498885D01*
X23587Y498885D01*
G37*
%LPD*%
%LPC*%
G36*
X23587Y575085D02*
X23587Y575085D01*
X20237Y576473D01*
X17673Y579037D01*
X16285Y582387D01*
X16285Y586013D01*
X17673Y589363D01*
X20237Y591927D01*
X23587Y593315D01*
X27213Y593315D01*
X30563Y591927D01*
X33127Y589363D01*
X34515Y586013D01*
X34515Y582387D01*
X33127Y579037D01*
X30563Y576473D01*
X27213Y575085D01*
X23587Y575085D01*
G37*
%LPD*%
%LPC*%
G36*
X99787Y575085D02*
X99787Y575085D01*
X96437Y576473D01*
X93873Y579037D01*
X92485Y582387D01*
X92485Y586013D01*
X93873Y589363D01*
X96437Y591927D01*
X99787Y593315D01*
X103413Y593315D01*
X106763Y591927D01*
X109327Y589363D01*
X110715Y586013D01*
X110715Y582387D01*
X109327Y579037D01*
X106763Y576473D01*
X103413Y575085D01*
X99787Y575085D01*
G37*
%LPD*%
%LPC*%
G36*
X188806Y16885D02*
X188806Y16885D01*
X185677Y18182D01*
X183282Y20577D01*
X181985Y23706D01*
X181985Y27094D01*
X183282Y30223D01*
X185677Y32618D01*
X188806Y33915D01*
X192194Y33915D01*
X195323Y32618D01*
X197718Y30223D01*
X199015Y27094D01*
X199015Y23706D01*
X197718Y20577D01*
X195323Y18182D01*
X192194Y16885D01*
X188806Y16885D01*
G37*
%LPD*%
%LPC*%
G36*
X138006Y16885D02*
X138006Y16885D01*
X134877Y18182D01*
X132482Y20577D01*
X131185Y23706D01*
X131185Y27094D01*
X132482Y30223D01*
X134877Y32618D01*
X138006Y33915D01*
X141394Y33915D01*
X144523Y32618D01*
X146918Y30223D01*
X148215Y27094D01*
X148215Y23706D01*
X146918Y20577D01*
X144523Y18182D01*
X141394Y16885D01*
X138006Y16885D01*
G37*
%LPD*%
%LPC*%
G36*
X112606Y16885D02*
X112606Y16885D01*
X109477Y18182D01*
X107082Y20577D01*
X105785Y23706D01*
X105785Y27094D01*
X107082Y30223D01*
X109477Y32618D01*
X112606Y33915D01*
X115994Y33915D01*
X119123Y32618D01*
X121518Y30223D01*
X122815Y27094D01*
X122815Y23706D01*
X121518Y20577D01*
X119123Y18182D01*
X115994Y16885D01*
X112606Y16885D01*
G37*
%LPD*%
G36*
X16700Y347996D02*
X16700Y347996D01*
X17869Y348127D01*
X17869Y348128D01*
X17870Y348128D01*
X18979Y348516D01*
X18980Y348516D01*
X19976Y349142D01*
X20808Y349974D01*
X21434Y350970D01*
X21434Y350971D01*
X21822Y352080D01*
X21822Y352081D01*
X21823Y352081D01*
X21954Y353250D01*
X21823Y354419D01*
X21822Y354419D01*
X21822Y354420D01*
X21434Y355529D01*
X21434Y355530D01*
X20808Y356526D01*
X19976Y357358D01*
X18980Y357984D01*
X18979Y357984D01*
X17870Y358372D01*
X17869Y358372D01*
X17869Y358373D01*
X16700Y358504D01*
X8700Y358504D01*
X7531Y358373D01*
X7531Y358372D01*
X7530Y358372D01*
X6421Y357984D01*
X6420Y357984D01*
X5424Y357358D01*
X4592Y356526D01*
X3966Y355530D01*
X3966Y355529D01*
X3578Y354420D01*
X3578Y354419D01*
X3577Y354419D01*
X3446Y353250D01*
X3577Y352081D01*
X3578Y352081D01*
X3578Y352080D01*
X3966Y350971D01*
X3966Y350970D01*
X4592Y349974D01*
X5424Y349142D01*
X6420Y348516D01*
X6421Y348516D01*
X7530Y348128D01*
X7531Y348128D01*
X7531Y348127D01*
X8700Y347996D01*
X16700Y347996D01*
X16700Y347996D01*
G37*
G36*
X16700Y276496D02*
X16700Y276496D01*
X17869Y276627D01*
X17869Y276628D01*
X17870Y276628D01*
X18979Y277016D01*
X18980Y277016D01*
X19976Y277642D01*
X20808Y278474D01*
X21434Y279470D01*
X21434Y279471D01*
X21822Y280580D01*
X21822Y280581D01*
X21823Y280581D01*
X21954Y281750D01*
X21823Y282919D01*
X21822Y282919D01*
X21822Y282920D01*
X21434Y284029D01*
X21434Y284030D01*
X20808Y285026D01*
X19976Y285858D01*
X18980Y286484D01*
X18979Y286484D01*
X17870Y286872D01*
X17869Y286872D01*
X17869Y286873D01*
X16700Y287004D01*
X8700Y287004D01*
X7531Y286873D01*
X7531Y286872D01*
X7530Y286872D01*
X6421Y286484D01*
X6420Y286484D01*
X5424Y285858D01*
X4592Y285026D01*
X3966Y284030D01*
X3966Y284029D01*
X3578Y282920D01*
X3578Y282919D01*
X3577Y282919D01*
X3446Y281750D01*
X3577Y280581D01*
X3578Y280581D01*
X3578Y280580D01*
X3966Y279471D01*
X3966Y279470D01*
X4592Y278474D01*
X5424Y277642D01*
X6420Y277016D01*
X6421Y277016D01*
X7530Y276628D01*
X7531Y276628D01*
X7531Y276627D01*
X8700Y276496D01*
X16700Y276496D01*
X16700Y276496D01*
G37*
%LPC*%
G36*
X268223Y738123D02*
X268223Y738123D01*
X268223Y746677D01*
X269086Y746540D01*
X270612Y746044D01*
X272041Y745316D01*
X273339Y744373D01*
X274473Y743239D01*
X275416Y741941D01*
X276144Y740512D01*
X276640Y738986D01*
X276777Y738123D01*
X268223Y738123D01*
G37*
%LPD*%
%LPC*%
G36*
X256623Y738123D02*
X256623Y738123D01*
X256760Y738986D01*
X257256Y740512D01*
X257984Y741941D01*
X258927Y743239D01*
X260061Y744373D01*
X261359Y745316D01*
X262788Y746044D01*
X264314Y746540D01*
X265177Y746677D01*
X265177Y738123D01*
X256623Y738123D01*
G37*
%LPD*%
%LPC*%
G36*
X268223Y735077D02*
X268223Y735077D01*
X276777Y735077D01*
X276640Y734214D01*
X276144Y732688D01*
X275416Y731259D01*
X274473Y729961D01*
X273339Y728827D01*
X272041Y727884D01*
X270612Y727156D01*
X269086Y726660D01*
X268223Y726523D01*
X268223Y735077D01*
G37*
%LPD*%
%LPC*%
G36*
X264314Y726660D02*
X264314Y726660D01*
X262788Y727156D01*
X261359Y727884D01*
X260061Y728827D01*
X258927Y729961D01*
X257984Y731259D01*
X257256Y732688D01*
X256760Y734214D01*
X256623Y735077D01*
X265177Y735077D01*
X265177Y726523D01*
X264314Y726660D01*
G37*
%LPD*%
%LPC*%
G36*
X103123Y534923D02*
X103123Y534923D01*
X103123Y543416D01*
X103972Y543281D01*
X105489Y542788D01*
X106910Y542065D01*
X108200Y541127D01*
X109327Y540000D01*
X110265Y538710D01*
X110988Y537289D01*
X111481Y535772D01*
X111616Y534923D01*
X103123Y534923D01*
G37*
%LPD*%
%LPC*%
G36*
X91584Y534923D02*
X91584Y534923D01*
X91719Y535772D01*
X92212Y537289D01*
X92935Y538710D01*
X93873Y540000D01*
X95000Y541127D01*
X96290Y542065D01*
X97711Y542788D01*
X99228Y543281D01*
X100077Y543416D01*
X100077Y534923D01*
X91584Y534923D01*
G37*
%LPD*%
%LPC*%
G36*
X103123Y531877D02*
X103123Y531877D01*
X111616Y531877D01*
X111481Y531028D01*
X110988Y529511D01*
X110265Y528090D01*
X109327Y526800D01*
X108200Y525673D01*
X106910Y524735D01*
X105489Y524012D01*
X103972Y523519D01*
X103123Y523384D01*
X103123Y531877D01*
G37*
%LPD*%
%LPC*%
G36*
X99228Y523519D02*
X99228Y523519D01*
X97711Y524012D01*
X96290Y524735D01*
X95000Y525673D01*
X93873Y526800D01*
X92935Y528090D01*
X92212Y529511D01*
X91719Y531028D01*
X91584Y531877D01*
X100077Y531877D01*
X100077Y523384D01*
X99228Y523519D01*
G37*
%LPD*%
%LPC*%
G36*
X8700Y279504D02*
X8700Y279504D01*
X8119Y279581D01*
X7577Y279805D01*
X7112Y280162D01*
X6755Y280627D01*
X6531Y281169D01*
X6454Y281750D01*
X6531Y282331D01*
X6755Y282873D01*
X7112Y283338D01*
X7577Y283695D01*
X8119Y283919D01*
X8700Y283996D01*
X16700Y283996D01*
X17281Y283919D01*
X17823Y283695D01*
X18288Y283338D01*
X18645Y282873D01*
X18869Y282331D01*
X18946Y281750D01*
X18869Y281169D01*
X18645Y280627D01*
X18288Y280162D01*
X17823Y279805D01*
X17281Y279581D01*
X16700Y279504D01*
X8700Y279504D01*
G37*
%LPD*%
%LPC*%
G36*
X8700Y351004D02*
X8700Y351004D01*
X8119Y351081D01*
X7577Y351305D01*
X7112Y351662D01*
X6755Y352127D01*
X6531Y352669D01*
X6454Y353250D01*
X6531Y353831D01*
X6755Y354373D01*
X7112Y354838D01*
X7577Y355195D01*
X8119Y355419D01*
X8700Y355496D01*
X16700Y355496D01*
X17281Y355419D01*
X17823Y355195D01*
X18288Y354838D01*
X18645Y354373D01*
X18869Y353831D01*
X18946Y353250D01*
X18869Y352669D01*
X18645Y352127D01*
X18288Y351662D01*
X17823Y351305D01*
X17281Y351081D01*
X16700Y351004D01*
X8700Y351004D01*
G37*
%LPD*%
%LPC*%
G36*
X217423Y26923D02*
X217423Y26923D01*
X217423Y34814D01*
X218680Y34564D01*
X220414Y33846D01*
X221976Y32803D01*
X223303Y31476D01*
X224346Y29914D01*
X225064Y28180D01*
X225314Y26923D01*
X217423Y26923D01*
G37*
%LPD*%
%LPC*%
G36*
X206486Y26923D02*
X206486Y26923D01*
X206736Y28180D01*
X207454Y29914D01*
X208497Y31476D01*
X209824Y32803D01*
X211386Y33846D01*
X213120Y34564D01*
X214377Y34814D01*
X214377Y26923D01*
X206486Y26923D01*
G37*
%LPD*%
%LPC*%
G36*
X217423Y23877D02*
X217423Y23877D01*
X225314Y23877D01*
X225064Y22620D01*
X224346Y20886D01*
X223303Y19324D01*
X221976Y17997D01*
X220414Y16954D01*
X218680Y16236D01*
X217423Y15986D01*
X217423Y23877D01*
G37*
%LPD*%
%LPC*%
G36*
X213120Y16236D02*
X213120Y16236D01*
X211386Y16954D01*
X209824Y17997D01*
X208497Y19324D01*
X207454Y20886D01*
X206736Y22620D01*
X206486Y23877D01*
X214377Y23877D01*
X214377Y15986D01*
X213120Y16236D01*
G37*
%LPD*%
%LPC*%
G36*
X101599Y533399D02*
X101599Y533399D01*
X101599Y533401D01*
X101601Y533401D01*
X101601Y533399D01*
X101599Y533399D01*
G37*
%LPD*%
%LPC*%
G36*
X266699Y736599D02*
X266699Y736599D01*
X266699Y736601D01*
X266701Y736601D01*
X266701Y736599D01*
X266699Y736599D01*
G37*
%LPD*%
%LPC*%
G36*
X215899Y25399D02*
X215899Y25399D01*
X215899Y25401D01*
X215901Y25401D01*
X215901Y25399D01*
X215899Y25399D01*
G37*
%LPD*%
D10*
X101600Y508000D03*
D11*
X101600Y533400D03*
X101600Y558800D03*
X101600Y584200D03*
X25400Y584200D03*
X25400Y508000D03*
D12*
X709700Y436400D03*
D13*
X709700Y408700D03*
X709700Y381000D03*
X709700Y353300D03*
X709700Y325600D03*
X738100Y422500D03*
X738100Y394800D03*
X738100Y367200D03*
X738100Y339500D03*
D14*
X723900Y506000D03*
X723900Y256000D03*
D15*
X38100Y736600D03*
D16*
X63500Y736600D03*
X88900Y736600D03*
X114300Y736600D03*
X139700Y736600D03*
X165100Y736600D03*
X190500Y736600D03*
X215900Y736600D03*
X241300Y736600D03*
X266700Y736600D03*
D17*
X38100Y25400D03*
D18*
X63500Y25400D03*
X88900Y25400D03*
X114300Y25400D03*
X139700Y25400D03*
X165100Y25400D03*
X190500Y25400D03*
X215900Y25400D03*
D19*
X428000Y152400D03*
D20*
X381000Y152400D03*
X334000Y152400D03*
X355600Y25400D03*
X406400Y25400D03*
D21*
X481013Y407988D02*
X481013Y546100D01*
X481013Y407988D02*
X481013Y376238D01*
X93663Y25400D02*
X88900Y25400D01*
X93663Y25400D02*
X234950Y166688D01*
X295275Y166688D01*
X423863Y295275D01*
X423863Y350838D01*
X481013Y407988D01*
D22*
X481013Y376238D03*
X481013Y546100D03*
X114300Y330200D03*
X215900Y304800D03*
X292100Y177800D03*
D21*
X215900Y254000D01*
X215900Y292100D01*
X215900Y304800D01*
X117475Y542925D02*
X101600Y558800D01*
X117475Y542925D02*
X117475Y365125D01*
D22*
X117475Y365125D03*
D21*
X114300Y330200D02*
X114300Y292100D01*
X215900Y292100D01*
X709613Y325438D02*
X709700Y325600D01*
D22*
X533400Y190500D03*
X342900Y254000D03*
D21*
X660400Y330200D02*
X665163Y325438D01*
X709613Y325438D01*
X334000Y152400D02*
X292100Y152400D01*
D22*
X292100Y152400D03*
X50800Y304800D03*
D21*
X63500Y304800D01*
D22*
X139700Y393700D03*
X190500Y381000D03*
X266700Y355600D03*
D21*
X266700Y393700D01*
D22*
X266700Y393700D03*
D21*
X266700Y508000D01*
X269875Y508000D01*
D22*
X368300Y508000D03*
D21*
X269875Y508000D01*
X169863Y25400D02*
X165100Y25400D01*
X169863Y25400D02*
X279400Y134938D01*
X363538Y134938D01*
X381000Y152400D01*
X215900Y728663D02*
X215900Y736600D01*
X215900Y728663D02*
X269875Y674688D01*
X269875Y508000D01*
X423863Y195263D02*
X381000Y152400D01*
D22*
X423863Y195263D03*
D21*
X38100Y269875D02*
X38100Y25400D01*
D22*
X220663Y358775D03*
X258763Y361950D03*
D21*
X255588Y358775D01*
X228600Y358775D01*
X220663Y358775D01*
X127000Y358775D01*
X38100Y269875D01*
X219075Y341313D02*
X336550Y341313D01*
X63500Y288925D02*
X63500Y25400D01*
X63500Y288925D02*
X115888Y341313D01*
D22*
X219075Y341313D03*
X336550Y341313D03*
D21*
X219075Y341313D02*
X115888Y341313D01*
X331788Y82550D02*
X604838Y82550D01*
X331788Y82550D02*
X287338Y127000D01*
D22*
X604838Y82550D03*
X287338Y127000D03*
D21*
X252413Y676275D02*
X227013Y676275D01*
X180975Y722313D01*
D22*
X252413Y676275D03*
X180975Y722313D03*
D21*
X393700Y550863D02*
X393700Y488950D01*
X393700Y550863D02*
X282575Y661988D01*
X234950Y693738D02*
X222250Y706438D01*
X169863Y706438D02*
X139700Y736600D01*
D22*
X393700Y488950D03*
X282575Y661988D03*
X234950Y693738D03*
X222250Y706438D03*
X169863Y706438D03*
D21*
X190500Y728663D02*
X234950Y684213D01*
X190500Y728663D02*
X190500Y736600D01*
D22*
X234950Y684213D03*
D21*
X246063Y647700D02*
X246063Y460375D01*
X246063Y647700D02*
X165100Y728663D01*
X165100Y736600D01*
D22*
X246063Y460375D03*
D21*
X274638Y377825D02*
X347663Y450850D01*
D22*
X347663Y450850D03*
X274638Y377825D03*
D21*
X276225Y423863D02*
X304800Y423863D01*
X276225Y423863D02*
X274638Y422275D01*
X257175Y439738D02*
X115888Y581025D01*
X115888Y684213D01*
X63500Y736600D01*
D22*
X304800Y423863D03*
X274638Y422275D03*
X257175Y439738D03*
D21*
X277813Y533400D02*
X277813Y657225D01*
X274638Y660400D01*
X274638Y679450D01*
X231775Y722313D01*
D22*
X277813Y533400D03*
X231775Y722313D03*
D21*
X431800Y349250D02*
X431800Y155575D01*
X428625Y152400D01*
X428000Y152400D01*
D22*
X431800Y349250D03*
D21*
X41275Y295275D02*
X41275Y447675D01*
X101600Y508000D01*
X246063Y657225D02*
X261938Y673100D01*
D22*
X41275Y295275D03*
X261938Y673100D03*
X246063Y657225D03*
X76200Y317500D03*
D21*
X76200Y406400D01*
D22*
X76200Y406400D03*
X50800Y317500D03*
D21*
X63500Y317500D01*
X63500Y419100D01*
X88900Y419100D01*
D22*
X88900Y419100D03*
M02*
