M48
;GenerationSoftware,Autodesk,EAGLE,9.6.2*%
;CreationDate,2021-10-27T12:10:36Z*%
FMAT,2
ICI,OFF
METRIC,TZ,000.000
T9C0.350
T8C0.450
T7C0.890
T6C1.010
T5C1.016
T4C1.020
T3C1.850
T2C2.000
T1C3.302
%
G90
M71
T1
X72390Y50600
X72390Y25600
T2
X52070Y38100
X58420Y38100
T3
X40640Y2540
X42800Y15240
X38100Y15240
X33400Y15240
X35560Y2540
T4
X3810Y73660
X8890Y73660
X16510Y73660
X6350Y73660
X11430Y73660
X13970Y73660
X19050Y73660
X21590Y73660
X24130Y73660
X26670Y73660
T5
X70970Y43640
X73810Y36720
X73810Y33950
X70970Y40870
X70970Y38100
X70970Y35330
X70970Y32560
X73810Y42250
X73810Y39480
T6
X2540Y58420
X10160Y50800
X10160Y53340
X10160Y55880
X10160Y58420
X2540Y50800
T7
X11430Y2540
X13970Y2540
X16510Y2540
X19050Y2540
X21590Y2540
X3810Y2540
X8890Y2540
X6350Y2540
T8
X1270Y35325
X1270Y28175
T9
X5080Y31750
X19050Y38100
X48101Y37624
X48101Y54610
X11430Y33020
X21590Y30480
X29210Y17780
X11747Y36513
X53340Y19050
X34290Y25400
X29210Y15240
X5080Y30480
X8890Y41910
X13970Y39370
X26670Y35560
X26670Y39370
X36830Y50800
X42386Y19526
X22066Y35878
X25876Y36195
X21907Y34131
X33655Y34131
X60484Y8255
X28734Y12700
X25241Y67628
X18098Y72231
X39370Y48895
X28257Y66199
X23495Y69374
X22225Y70644
X16986Y70644
X23495Y68421
X24606Y46037
X34766Y45085
X27464Y42228
X27464Y37783
X30480Y42386
X25717Y43974
X27781Y53340
X23177Y72231
X43180Y34925
X4128Y29527
X26194Y67310
X24606Y65723
X7620Y31750
X7620Y40640
M30