G04 EAGLE Gerber RS-274X export*
G75*
%MOMM*%
%FSLAX34Y34*%
%LPD*%
%IN*%
%IPPOS*%
%AMOC8*
5,1,8,0,0,1.08239X$1,22.5*%
G01*
%ADD10C,0.254000*%


D10*
X0Y0D02*
X761800Y0D01*
X761800Y758700D01*
X0Y758700D01*
X0Y0D01*
X6450Y281750D02*
X6459Y281554D01*
X6484Y281359D01*
X6527Y281168D01*
X6586Y280980D01*
X6661Y280799D01*
X6751Y280625D01*
X6857Y280459D01*
X6976Y280304D01*
X7109Y280159D01*
X7254Y280026D01*
X7409Y279907D01*
X7575Y279801D01*
X7749Y279711D01*
X7930Y279636D01*
X8118Y279577D01*
X8309Y279534D01*
X8504Y279509D01*
X8700Y279500D01*
X16700Y279500D01*
X16896Y279509D01*
X17091Y279534D01*
X17282Y279577D01*
X17470Y279636D01*
X17651Y279711D01*
X17825Y279801D01*
X17991Y279907D01*
X18146Y280026D01*
X18291Y280159D01*
X18424Y280304D01*
X18543Y280459D01*
X18649Y280625D01*
X18739Y280799D01*
X18814Y280980D01*
X18873Y281168D01*
X18916Y281359D01*
X18941Y281554D01*
X18950Y281750D01*
X18941Y281946D01*
X18916Y282141D01*
X18873Y282332D01*
X18814Y282520D01*
X18739Y282701D01*
X18649Y282875D01*
X18543Y283041D01*
X18424Y283196D01*
X18291Y283341D01*
X18146Y283474D01*
X17991Y283593D01*
X17825Y283699D01*
X17651Y283789D01*
X17470Y283864D01*
X17282Y283923D01*
X17091Y283966D01*
X16896Y283991D01*
X16700Y284000D01*
X8700Y284000D01*
X8504Y283991D01*
X8309Y283966D01*
X8118Y283923D01*
X7930Y283864D01*
X7749Y283789D01*
X7575Y283699D01*
X7409Y283593D01*
X7254Y283474D01*
X7109Y283341D01*
X6976Y283196D01*
X6857Y283041D01*
X6751Y282875D01*
X6661Y282701D01*
X6586Y282520D01*
X6527Y282332D01*
X6484Y282141D01*
X6459Y281946D01*
X6450Y281750D01*
X6450Y353250D02*
X6459Y353054D01*
X6484Y352859D01*
X6527Y352668D01*
X6586Y352480D01*
X6661Y352299D01*
X6751Y352125D01*
X6857Y351959D01*
X6976Y351804D01*
X7109Y351659D01*
X7254Y351526D01*
X7409Y351407D01*
X7575Y351301D01*
X7749Y351211D01*
X7930Y351136D01*
X8118Y351077D01*
X8309Y351034D01*
X8504Y351009D01*
X8700Y351000D01*
X16700Y351000D01*
X16896Y351009D01*
X17091Y351034D01*
X17282Y351077D01*
X17470Y351136D01*
X17651Y351211D01*
X17825Y351301D01*
X17991Y351407D01*
X18146Y351526D01*
X18291Y351659D01*
X18424Y351804D01*
X18543Y351959D01*
X18649Y352125D01*
X18739Y352299D01*
X18814Y352480D01*
X18873Y352668D01*
X18916Y352859D01*
X18941Y353054D01*
X18950Y353250D01*
X18941Y353446D01*
X18916Y353641D01*
X18873Y353832D01*
X18814Y354020D01*
X18739Y354201D01*
X18649Y354375D01*
X18543Y354541D01*
X18424Y354696D01*
X18291Y354841D01*
X18146Y354974D01*
X17991Y355093D01*
X17825Y355199D01*
X17651Y355289D01*
X17470Y355364D01*
X17282Y355423D01*
X17091Y355466D01*
X16896Y355491D01*
X16700Y355500D01*
X8700Y355500D01*
X8504Y355491D01*
X8309Y355466D01*
X8118Y355423D01*
X7930Y355364D01*
X7749Y355289D01*
X7575Y355199D01*
X7409Y355093D01*
X7254Y354974D01*
X7109Y354841D01*
X6976Y354696D01*
X6857Y354541D01*
X6751Y354375D01*
X6661Y354201D01*
X6586Y354020D01*
X6527Y353832D01*
X6484Y353641D01*
X6459Y353446D01*
X6450Y353250D01*
X521137Y391000D02*
X522007Y390924D01*
X522866Y390772D01*
X523710Y390546D01*
X524530Y390248D01*
X525322Y389879D01*
X526078Y389442D01*
X526793Y388941D01*
X527462Y388380D01*
X528080Y387762D01*
X528641Y387093D01*
X529142Y386378D01*
X529579Y385622D01*
X529948Y384830D01*
X530246Y384010D01*
X530472Y383166D01*
X530624Y382307D01*
X530700Y381437D01*
X530700Y380563D01*
X530624Y379694D01*
X530472Y378834D01*
X530246Y377990D01*
X529948Y377170D01*
X529579Y376378D01*
X529142Y375622D01*
X528641Y374907D01*
X528080Y374238D01*
X527462Y373620D01*
X526793Y373059D01*
X526078Y372558D01*
X525322Y372121D01*
X524530Y371752D01*
X523710Y371454D01*
X522866Y371228D01*
X522007Y371076D01*
X521137Y371000D01*
X520263Y371000D01*
X519394Y371076D01*
X518534Y371228D01*
X517690Y371454D01*
X516870Y371752D01*
X516078Y372121D01*
X515322Y372558D01*
X514607Y373059D01*
X513938Y373620D01*
X513320Y374238D01*
X512759Y374907D01*
X512258Y375622D01*
X511821Y376378D01*
X511452Y377170D01*
X511154Y377990D01*
X510928Y378834D01*
X510776Y379694D01*
X510700Y380563D01*
X510700Y381437D01*
X510776Y382307D01*
X510928Y383166D01*
X511154Y384010D01*
X511452Y384830D01*
X511821Y385622D01*
X512258Y386378D01*
X512759Y387093D01*
X513320Y387762D01*
X513938Y388380D01*
X514607Y388941D01*
X515322Y389442D01*
X516078Y389879D01*
X516870Y390248D01*
X517690Y390546D01*
X518534Y390772D01*
X519394Y390924D01*
X520263Y391000D01*
X521137Y391000D01*
X583763Y371000D02*
X582894Y371076D01*
X582034Y371228D01*
X581190Y371454D01*
X580370Y371752D01*
X579578Y372121D01*
X578822Y372558D01*
X578107Y373059D01*
X577438Y373620D01*
X576820Y374238D01*
X576259Y374907D01*
X575758Y375622D01*
X575321Y376378D01*
X574952Y377170D01*
X574654Y377990D01*
X574428Y378834D01*
X574276Y379694D01*
X574200Y380563D01*
X574200Y381437D01*
X574276Y382307D01*
X574428Y383166D01*
X574654Y384010D01*
X574952Y384830D01*
X575321Y385622D01*
X575758Y386378D01*
X576259Y387093D01*
X576820Y387762D01*
X577438Y388380D01*
X578107Y388941D01*
X578822Y389442D01*
X579578Y389879D01*
X580370Y390248D01*
X581190Y390546D01*
X582034Y390772D01*
X582894Y390924D01*
X583763Y391000D01*
X584637Y391000D01*
X585507Y390924D01*
X586366Y390772D01*
X587210Y390546D01*
X588030Y390248D01*
X588822Y389879D01*
X589578Y389442D01*
X590293Y388941D01*
X590962Y388380D01*
X591580Y387762D01*
X592141Y387093D01*
X592642Y386378D01*
X593079Y385622D01*
X593448Y384830D01*
X593746Y384010D01*
X593972Y383166D01*
X594124Y382307D01*
X594200Y381437D01*
X594200Y380563D01*
X594124Y379694D01*
X593972Y378834D01*
X593746Y377990D01*
X593448Y377170D01*
X593079Y376378D01*
X592642Y375622D01*
X592141Y374907D01*
X591580Y374238D01*
X590962Y373620D01*
X590293Y373059D01*
X589578Y372558D01*
X588822Y372121D01*
X588030Y371752D01*
X587210Y371454D01*
X586366Y371228D01*
X585507Y371076D01*
X584637Y371000D01*
X583763Y371000D01*
X12523Y351000D02*
X12173Y351055D01*
X11836Y351165D01*
X11521Y351326D01*
X11234Y351534D01*
X10984Y351784D01*
X10776Y352071D01*
X10615Y352386D01*
X10505Y352723D01*
X10450Y353073D01*
X10450Y353427D01*
X10505Y353777D01*
X10615Y354114D01*
X10776Y354429D01*
X10984Y354716D01*
X11234Y354966D01*
X11521Y355174D01*
X11836Y355335D01*
X12173Y355445D01*
X12523Y355500D01*
X12877Y355500D01*
X13227Y355445D01*
X13564Y355335D01*
X13879Y355174D01*
X14166Y354966D01*
X14416Y354716D01*
X14624Y354429D01*
X14785Y354114D01*
X14895Y353777D01*
X14950Y353427D01*
X14950Y353073D01*
X14895Y352723D01*
X14785Y352386D01*
X14624Y352071D01*
X14416Y351784D01*
X14166Y351534D01*
X13879Y351326D01*
X13564Y351165D01*
X13227Y351055D01*
X12877Y351000D01*
X12523Y351000D01*
X12523Y279500D02*
X12173Y279555D01*
X11836Y279665D01*
X11521Y279826D01*
X11234Y280034D01*
X10984Y280284D01*
X10776Y280571D01*
X10615Y280886D01*
X10505Y281223D01*
X10450Y281573D01*
X10450Y281927D01*
X10505Y282277D01*
X10615Y282614D01*
X10776Y282929D01*
X10984Y283216D01*
X11234Y283466D01*
X11521Y283674D01*
X11836Y283835D01*
X12173Y283945D01*
X12523Y284000D01*
X12877Y284000D01*
X13227Y283945D01*
X13564Y283835D01*
X13879Y283674D01*
X14166Y283466D01*
X14416Y283216D01*
X14624Y282929D01*
X14785Y282614D01*
X14895Y282277D01*
X14950Y281927D01*
X14950Y281573D01*
X14895Y281223D01*
X14785Y280886D01*
X14624Y280571D01*
X14416Y280284D01*
X14166Y280034D01*
X13879Y279826D01*
X13564Y279665D01*
X13227Y279555D01*
X12877Y279500D01*
X12523Y279500D01*
M02*
