G04 EAGLE Gerber RS-274X export*
G75*
%MOMM*%
%FSLAX34Y34*%
%LPD*%
%INSoldermask Bottom*%
%IPPOS*%
%AMOC8*
5,1,8,0,0,1.08239X$1,22.5*%
G01*
%ADD10R,1.721200X1.721200*%
%ADD11C,1.721200*%
%ADD12C,2.203200*%
%ADD13R,2.082800X2.082800*%
%ADD14C,2.082800*%
%ADD15C,5.283200*%
%ADD16R,1.733200X1.733200*%
%ADD17C,1.733200*%
%ADD18R,1.601200X1.601200*%
%ADD19C,1.601200*%
%ADD20R,2.978200X2.978200*%
%ADD21C,2.978200*%
%ADD22R,2.301819X1.456819*%
%ADD23R,2.302169X1.444631*%
%ADD24C,0.653200*%
%ADD25C,0.959600*%


D10*
X101600Y508000D03*
D11*
X101600Y533400D03*
X101600Y558800D03*
X101600Y584200D03*
X25400Y584200D03*
X25400Y508000D03*
D12*
X520700Y381000D03*
X584200Y381000D03*
D13*
X709700Y436400D03*
D14*
X709700Y408700D03*
X709700Y381000D03*
X709700Y353300D03*
X709700Y325600D03*
X738100Y422500D03*
X738100Y394800D03*
X738100Y367200D03*
X738100Y339500D03*
D15*
X723900Y506000D03*
X723900Y256000D03*
D16*
X38100Y736600D03*
D17*
X63500Y736600D03*
X88900Y736600D03*
X114300Y736600D03*
X139700Y736600D03*
X165100Y736600D03*
X190500Y736600D03*
X215900Y736600D03*
X241300Y736600D03*
X266700Y736600D03*
D18*
X38100Y25400D03*
D19*
X63500Y25400D03*
X88900Y25400D03*
X114300Y25400D03*
X139700Y25400D03*
X165100Y25400D03*
X190500Y25400D03*
X215900Y25400D03*
D20*
X428000Y152400D03*
D21*
X381000Y152400D03*
X334000Y152400D03*
X355600Y25400D03*
X406400Y25400D03*
D22*
X12691Y353284D03*
D23*
X12689Y281723D03*
D24*
X12700Y353250D03*
X12700Y281750D03*
D25*
X481013Y376238D03*
X481013Y546100D03*
X114300Y330200D03*
X215900Y304800D03*
X292100Y177800D03*
X117475Y365125D03*
X533400Y190500D03*
X342900Y254000D03*
X292100Y152400D03*
X50800Y304800D03*
X139700Y393700D03*
X190500Y381000D03*
X266700Y355600D03*
X266700Y393700D03*
X368300Y508000D03*
X423863Y195263D03*
X220663Y358775D03*
X258763Y361950D03*
X219075Y341313D03*
X336550Y341313D03*
X604838Y82550D03*
X287338Y127000D03*
X252413Y676275D03*
X180975Y722313D03*
X393700Y488950D03*
X282575Y661988D03*
X234950Y693738D03*
X222250Y706438D03*
X169863Y706438D03*
X234950Y684213D03*
X246063Y460375D03*
X347663Y450850D03*
X274638Y377825D03*
X304800Y423863D03*
X274638Y422275D03*
X257175Y439738D03*
X277813Y533400D03*
X231775Y722313D03*
X431800Y349250D03*
X41275Y295275D03*
X261938Y673100D03*
X246063Y657225D03*
X76200Y317500D03*
X76200Y406400D03*
X50800Y317500D03*
X88900Y419100D03*
M02*
